<mxfile host="app.diagrams.net" modified="2024-04-27T22:37:45.684Z" agent="Mozilla/5.0 (X11; Linux x86_64) AppleWebKit/537.36 (KHTML, like Gecko) Chrome/121.0.0.0 Safari/537.36" etag="ZQx5bIoyztiVDewuyj4b" version="24.3.0" type="device">
  <diagram name="Page-1" id="HuCuGDOyS_Dv9swh0619">
    <mxGraphModel dx="1364" dy="793" grid="1" gridSize="10" guides="1" tooltips="1" connect="1" arrows="1" fold="1" page="1" pageScale="1" pageWidth="827" pageHeight="1169" math="0" shadow="0">
      <root>
        <mxCell id="0" />
        <mxCell id="1" parent="0" />
        <mxCell id="UMffj6f-WVmhNxOPsVtC-7" value="AIssistDM Plugin" style="shape=image;verticalLabelPosition=bottom;labelBackgroundColor=#ffffff;verticalAlign=top;aspect=fixed;imageAspect=0;image=data:image/png,iVBORw0KGgoAAAANSUhEUgAAAaoAAAGqCAYAAABajwD2AAAAxXpUWHRSYXcgcHJvZmlsZSB0eXBlIGV4aWYAAHjabVBBEsMgCLz7ij5BAQ0+xyR2pj/o87sKySSZbkZ2sygioX8/7/AaoCRB8qKllhIBqVKpQWg0tBlTlBnNaq7S3Q9ngsAMZktoMU6H7wcOTuNcvhTSzRPrPVHFmPRRyC/i0RFB7F6oeiEmSyQ5nzBRqi7XJ6w93qG2wghbn7Vj8tue/7JgenuGyUSdYSMyizXAY0ngBiGIhE1oeOqMr0Grd4KB/JvTgfADVtRalcmZVe4AAAGEaUNDUElDQyBwcm9maWxlAAB4nH2RPUjDQBzFXz+kIhURi4g4ZKhO1kFFHGsVilAh1AqtOphc+gVNGpIUF0fBteDgx2LVwcVZVwdXQRD8AHF2cFJ0kRL/lxRaxHhw3I939x537wB/o8JUMxgHVM0y0smEkM2tCqFXBDGIfkwgIDFTnxPFFDzH1z18fL2L8Szvc3+OXiVvMsAnEMeZbljEG8Qzm5bOeZ84wkqSQnxOPG7QBYkfuS67/Ma56LCfZ0aMTHqeOEIsFDtY7mBWMlTiaeKoomqU78+6rHDe4qxWaqx1T/7CcF5bWeY6zREksYgliBAgo4YyKrAQo1UjxUSa9hMe/mHHL5JLJlcZjBwLqEKF5PjB/+B3t2ZhatJNCieArhfb/hgFQrtAs27b38e23TwBAs/Aldb2VxvA7Cfp9bYWPQL6toGL67Ym7wGXO8DQky4ZkiMFaPoLBeD9jL4pBwzcAj1rbm+tfZw+ABnqKnUDHBwCY0XKXvd4d3dnb/+eafX3A4Pbcq2IXO2RAAAOW2lUWHRYTUw6Y29tLmFkb2JlLnhtcAAAAAAAPD94cGFja2V0IGJlZ2luPSLvu78iIGlkPSJXNU0wTXBDZWhpSHpyZVN6TlRjemtjOWQiPz4KPHg6eG1wbWV0YSB4bWxuczp4PSJhZG9iZTpuczptZXRhLyIgeDp4bXB0az0iWE1QIENvcmUgNC40LjAtRXhpdjIiPgogPHJkZjpSREYgeG1sbnM6cmRmPSJodHRwOi8vd3d3LnczLm9yZy8xOTk5LzAyLzIyLXJkZi1zeW50YXgtbnMjIj4KICA8cmRmOkRlc2NyaXB0aW9uIHJkZjphYm91dD0iIgogICAgeG1sbnM6eG1wTU09Imh0dHA6Ly9ucy5hZG9iZS5jb20veGFwLzEuMC9tbS8iCiAgICB4bWxuczpzdEV2dD0iaHR0cDovL25zLmFkb2JlLmNvbS94YXAvMS4wL3NUeXBlL1Jlc291cmNlRXZlbnQjIgogICAgeG1sbnM6ZGM9Imh0dHA6Ly9wdXJsLm9yZy9kYy9lbGVtZW50cy8xLjEvIgogICAgeG1sbnM6R0lNUD0iaHR0cDovL3d3dy5naW1wLm9yZy94bXAvIgogICAgeG1sbnM6dGlmZj0iaHR0cDovL25zLmFkb2JlLmNvbS90aWZmLzEuMC8iCiAgICB4bWxuczp4bXA9Imh0dHA6Ly9ucy5hZG9iZS5jb20veGFwLzEuMC8iCiAgIHhtcE1NOkRvY3VtZW50SUQ9ImdpbXA6ZG9jaWQ6Z2ltcDphZWExZDEzYS02ZWViLTQ1NDctOTQ2ZC1kNzExYTY2NGRlZmUiCiAgIHhtcE1NOkluc3RhbmNlSUQ9InhtcC5paWQ6MDhkNGNmOTUtZGIzMi00YzJjLWE1MDItNDRhNjY0YmNhODZmIgogICB4bXBNTTpPcmlnaW5hbERvY3VtZW50SUQ9InhtcC5kaWQ6MTVjMzllOWYtOGY4ZS00MGRkLWE0YjYtZDU4NjA3ODRiNTNlIgogICBkYzpGb3JtYXQ9ImltYWdlL3BuZyIKICAgR0lNUDpBUEk9IjIuMCIKICAgR0lNUDpQbGF0Zm9ybT0iTGludXgiCiAgIEdJTVA6VGltZVN0YW1wPSIxNzEzODA4NTE4ODU1Nzc0IgogICBHSU1QOlZlcnNpb249IjIuMTAuMzQiCiAgIHRpZmY6T3JpZW50YXRpb249IjEiCiAgIHhtcDpDcmVhdG9yVG9vbD0iR0lNUCAyLjEwIgogICB4bXA6TWV0YWRhdGFEYXRlPSIyMDI0OjA0OjIyVDE0OjU1OjE4LTAzOjAwIgogICB4bXA6TW9kaWZ5RGF0ZT0iMjAyNDowNDoyMlQxNDo1NToxOC0wMzowMCI+CiAgIDx4bXBNTTpIaXN0b3J5PgogICAgPHJkZjpTZXE+CiAgICAgPHJkZjpsaQogICAgICBzdEV2dDphY3Rpb249InNhdmVkIgogICAgICBzdEV2dDpjaGFuZ2VkPSIvIgogICAgICBzdEV2dDppbnN0YW5jZUlEPSJ4bXAuaWlkOjYxZmFmOWVlLTYyNWMtNGU2My04M2YzLWM2YmIyN2Y1YmY4MiIKICAgICAgc3RFdnQ6c29mdHdhcmVBZ2VudD0iR2ltcCAyLjEwIChMaW51eCkiCiAgICAgIHN0RXZ0OndoZW49IjIwMjQtMDQtMjJUMTQ6NDk6NDAtMDM6MDAiLz4KICAgICA8cmRmOmxpCiAgICAgIHN0RXZ0OmFjdGlvbj0ic2F2ZWQiCiAgICAgIHN0RXZ0OmNoYW5nZWQ9Ii8iCiAgICAgIHN0RXZ0Omluc3RhbmNlSUQ9InhtcC5paWQ6ODQxN2UxMWYtY2JlNy00YmE1LWEyOWItY2M5M2QyODM5ODU4IgogICAgICBzdEV2dDpzb2Z0d2FyZUFnZW50PSJHaW1wIDIuMTAgKExpbnV4KSIKICAgICAgc3RFdnQ6d2hlbj0iMjAyNC0wNC0yMlQxNDo1NToxOC0wMzowMCIvPgogICAgPC9yZGY6U2VxPgogICA8L3htcE1NOkhpc3Rvcnk+CiAgPC9yZGY6RGVzY3JpcHRpb24+CiA8L3JkZjpSREY+CjwveDp4bXBtZXRhPgogICAgICAgICAgICAgICAgICAgICAgICAgICAgICAgICAgICAgICAgICAgICAgICAgICAgICAgICAgICAgICAgICAgICAgICAgICAgICAgICAgICAgICAgICAgICAgICAgICAgCiAgICAgICAgICAgICAgICAgICAgICAgICAgICAgICAgICAgICAgICAgICAgICAgICAgICAgICAgICAgICAgICAgICAgICAgICAgICAgICAgICAgICAgICAgICAgICAgICAgICAKICAgICAgICAgICAgICAgICAgICAgICAgICAgICAgICAgICAgICAgICAgICAgICAgICAgICAgICAgICAgICAgICAgICAgICAgICAgICAgICAgICAgICAgICAgICAgICAgICAgIAogICAgICAgICAgICAgICAgICAgICAgICAgICAgICAgICAgICAgICAgICAgICAgICAgICAgICAgICAgICAgICAgICAgICAgICAgICAgICAgICAgICAgICAgICAgICAgICAgICAgCiAgICAgICAgICAgICAgICAgICAgICAgICAgICAgICAgICAgICAgICAgICAgICAgICAgICAgICAgICAgICAgICAgICAgICAgICAgICAgICAgICAgICAgICAgICAgICAgICAgICAKICAgICAgICAgICAgICAgICAgICAgICAgICAgICAgICAgICAgICAgICAgICAgICAgICAgICAgICAgICAgICAgICAgICAgICAgICAgICAgICAgICAgICAgICAgICAgICAgICAgIAogICAgICAgICAgICAgICAgICAgICAgICAgICAgICAgICAgICAgICAgICAgICAgICAgICAgICAgICAgICAgICAgICAgICAgICAgICAgICAgICAgICAgICAgICAgICAgICAgICAgCiAgICAgICAgICAgICAgICAgICAgICAgICAgICAgICAgICAgICAgICAgICAgICAgICAgICAgICAgICAgICAgICAgICAgICAgICAgICAgICAgICAgICAgICAgICAgICAgICAgICAKICAgICAgICAgICAgICAgICAgICAgICAgICAgICAgICAgICAgICAgICAgICAgICAgICAgICAgICAgICAgICAgICAgICAgICAgICAgICAgICAgICAgICAgICAgICAgICAgICAgIAogICAgICAgICAgICAgICAgICAgICAgICAgICAgICAgICAgICAgICAgICAgICAgICAgICAgICAgICAgICAgICAgICAgICAgICAgICAgICAgICAgICAgICAgICAgICAgICAgICAgCiAgICAgICAgICAgICAgICAgICAgICAgICAgICAgICAgICAgICAgICAgICAgICAgICAgICAgICAgICAgICAgICAgICAgICAgICAgICAgICAgICAgICAgICAgICAgICAgICAgICAKICAgICAgICAgICAgICAgICAgICAgICAgICAgICAgICAgICAgICAgICAgICAgICAgICAgICAgICAgICAgICAgICAgICAgICAgICAgICAgICAgICAgICAgICAgICAgICAgICAgIAogICAgICAgICAgICAgICAgICAgICAgICAgICAgICAgICAgICAgICAgICAgICAgICAgICAgICAgICAgICAgICAgICAgICAgICAgICAgICAgICAgICAgICAgICAgICAgICAgICAgCiAgICAgICAgICAgICAgICAgICAgICAgICAgICAgICAgICAgICAgICAgICAgICAgICAgICAgICAgICAgICAgICAgICAgICAgICAgICAgICAgICAgICAgICAgICAgICAgICAgICAKICAgICAgICAgICAgICAgICAgICAgICAgICAgICAgICAgICAgICAgICAgICAgICAgICAgICAgICAgICAgICAgICAgICAgICAgICAgICAgICAgICAgICAgICAgICAgICAgICAgIAogICAgICAgICAgICAgICAgICAgICAgICAgICAgICAgICAgICAgICAgICAgICAgICAgICAgICAgICAgICAgICAgICAgICAgICAgICAgICAgICAgICAgICAgICAgICAgICAgICAgCiAgICAgICAgICAgICAgICAgICAgICAgICAgICAgICAgICAgICAgICAgICAgICAgICAgICAgICAgICAgICAgICAgICAgICAgICAgICAgICAgICAgICAgICAgICAgICAgICAgICAKICAgICAgICAgICAgICAgICAgICAgICAgICAgICAgICAgICAgICAgICAgICAgICAgICAgICAgICAgICAgICAgICAgICAgICAgICAgICAgICAgICAgICAgICAgICAgICAgICAgIAogICAgICAgICAgICAgICAgICAgICAgICAgICAgICAgICAgICAgICAgICAgICAgICAgICAgICAgICAgICAgICAgICAgICAgICAgICAgICAgICAgICAgICAgICAgICAgICAgICAgCiAgICAgICAgICAgICAgICAgICAgICAgICAgICAgICAgICAgICAgICAgICAgICAgICAgICAgICAgICAgICAgICAgICAgICAgICAgICAgICAgICAgICAgICAgICAgICAgICAgICAKICAgICAgICAgICAgICAgICAgICAgICAgICAgCjw/eHBhY2tldCBlbmQ9InciPz7ZlW2eAAAABmJLR0QA/wD/AP+gvaeTAAAACXBIWXMAAA7DAAAOwwHHb6hkAAAAB3RJTUUH6AQWETcSyGuF9wAAIABJREFUeNrsnXl4VdXV/z/r3HszhwQSwhjCPM9kYBBERUFAUBEJg+Js+9aho51s7a9ztcPbvn37WttaR8ShrQoBrVarViuDA4IDKILMU4AkZL73rN8fNyhalJvkJvfcZH2eJw+IJ+fes/Y++7vX3muvJRhGG6OgZKEAjqCiIoKqAH5FAkCiQAJoApAABAQSUNKAjip0EtV0FekAkq5ouoikq5IsaDKQCCQ3/G5yw0fK8Xud8DVcoLbhTwWCDf9dJVCnUA1So1ApaIWoVihSgUi5CmWieljgqEINUK9IvUAdaC1QB1IHWqeIiogLqqqouK6uO+9BtV5gtCXETGDEK2NWLhE/9Q4iDuI44PgEX0C1Nh3oIJCuIumoZgCZIFkKnQXtDGQ1/GQCGUAS4DT8yAl/fvLvnPB3OcW7pCf5u37Kj/uJvx//qQDKFEoFKQU9BBwEOQRaqki5iJSDlqNUoFqBUAUSFNRV1ZAg7trZy028DBMqw2hJRj11uSTUVTuC+lQcvyp+lBTB7YpIN0S6oHQFskGzPhIiyQLt1ODx+E4QI+cTwuTVd+GTwnXiTwgoBzkMWgoc/zkAslvQvYruE2QfUKFoUFSDKk7IEX9ozcz7TLwMEyrDaAoFq5YKTiKOe8yn6vpdEb/ipDga6iHoQBVnAKp9gC4neEQdgHTCS3PxJEQtIWTBsIBRdvxH4LCi20XZoiJbBNkBHFO0XpCgIkFQBWXdLPO+DBMqw/iQwpULBHFEcQXwh4XGl4gTSBO3rhfoCIWRwCCgM5Da8JNEeE/ok0t0xscFTE/wvqqBqoafY8AO4E1B3lB4O+yNaQ1IDVAniKvq6jpbNjRMqIz2Rv7KYgdwRNQHpIBkNnhGPYCRqI5CZHCDMCU1eEkBwkt3tHEPqaXF6/ifJwZ41DUI13ZgI8gG4B3gIOhR0GMg9YDrit99xZYMDRMqo016TqsW+1RdH2iCKp1EyAV6gQ4CGdHgMXUlvJeU0OBdOdZHW1XEgkB9g3AdBnkPdBOwpcH72qU4u0GrHCGISmjtrGUmWoYJlRGfjC5ZJD5wHDQgkAySq+gw0MFAf6AfkEt4X+m4MPnMcp7BPUG46oH9wDZga1i45C2BzbjuYRXqXAi+MtvC4g0TKsPzXtMCURyfQkCVVEH6CzoBdCzQl3DwQyfC54+OC5P1wfgSruOBGgdE2Q36hsK/VWQDcMhB6hAJoqprZz1gwmWYUBmxJX9FsYiDCOpTSALpgJCHMhk4DRgAdCQc/HBieLgR3+gJwlV1XLiA14BnROR1VQ6ibhVQr47PXT/TlggNEyqjFSkoWeCA40M1GSEHyAMKgKnAEMKh4smEAyAs8KHtixaEowrrgEpEtqP6IvAS8C4i+xQ56mioHlV37eyHTLQMEyqjBbyn1YtEXNeHaiIiXYGhwPAGgRoB5PBRyLj1q/bNh+migG0ga4H1oBtFdZuKHBMltHb2ctdMZZhQGc2mcOXFDojfdZwMUR2B6ngRGadhoeraIE4J2JKe8dmidRh4F3gTWC/KWkfZ6Tpag+CunWmBGIYJldEocVogiPgUTRbVXBU5HeR0YDDQjfDS3onnmgzjVCjh6MFa4JAo24F/gz6FyJsg5SrUr5v5gHlZhgmVcXLyVy4UwXVEnETQDNDBipwLnE54D+rE9ETWb4zmcDwQ4xhwWGAjsFpFXkTZDVSBG1w3y7wsw4TKAIpWLZAQAR9uqIOI5gkyRtFzgEIgm3BQhIWRGy3lZSkfZsaQt4CnQF8E3hW0FKR27SzbyzKhMtqnB7VqiYjW+0UkW1VGgZ4GTCacIaID4b0n6x9Ga1If9qbYAawF/i2wFmWbiq9q3az7TbBMqIx2IVCrL3dwawKI00PUPQ30dGAs0JvweaeAWcmIMSEa9rKAt0FeAPmHq/q2I84x/Onuuum327KgCZXR1ihYMc+ngc4JuFW5onXTgRmEzzwdX97zm5UMj+E2eFlHP/KyfCvwJa5X1TJHq0IWLWhCZcQ5RasWSMh1fAipom5fRGYA5xLOGJGJhZUb8YE2eFlVwF7geUT+JvC6uqHD4vjq1s60dE0mVEacCdRi8blBJyiS6aoMFtGzGjyoQYSj9/zW9kYce1nVwD7gBdDVIK+IsEddaqx2lgmVEQcUlBQ7DtJRYZSiZwFnED7/dFygDKOteFnHBWst8HfgeUf8O0Ohuvr151maJhMqw3MUrlrsuJDuaChfYTYwkXApjeOHcw2jrXpYtcAe4HXgSVSfVnV3+kRCayyvoAmV4QGBWnGxz/UHkhzVUao6H/QMwnWeOpgHZbQzwaoBDgKvgv5FVJ8FOYjPF1x7rmVvN6EyWp1xKxc6DpoqaH8VOQ84j3BBwnQse4RhHtZB4DngYRFZh8ph0VD9GivuaEJltDwFqxcLbigZ6CfKNITzFEaZB2UYH+P4HtZulOdE5FFRXRdCS9fPfjBk5jGhMlqI/JJLfCLBXqhOA+YA44AswmHmhmGcXLAqgfeAZxQeV3jNJ1SsnWkRgiZURtQoXLnQcUUyBPc0YD7hQIkehJPEWhsaxqkJAmXAFuAfwKOIbPKFQnUvW4SgCZXRdApWLXRCriT6CI1GZCFwFuFAiVTsoK5hNMW7CgJHgE3AQ47qKsTZu2bWA0EzjwmV0QgmlCySIG4SInmozgTmAcP4KFDCMIzmCVYdcAB4BuVBxFmnOEfWz7rP9q9MqIxTMf2xRc5Rv3Zz0TOBC4HxhPeh7CyUYURfsKqAd0FWA48LumntrOXHzDQmVMbJvKjH5kkwkJgi6uYrXER4ma8P4XIbhmG0HCHCy4GvAY+ArFbH2b3+XCsrYkJlfMikv8xzggm+PNdxzgcuILzMl4GVejeM1qQG2AU8Kzj3ByWwxkd17bqZFmxhQtWOKVp9ibhuMA20EFgCnAl0xcLNDSNWuEAF8BbwoIr8zXGdPWtn32/BFiZU7Y+ClQsSxXF6KVyA6sWEE8emWJsYhieoB/YDT4Msc1XW4lD+ykxLxWRC1V5EqmRBFshkoJhw+fcu2DKfYXiN44eFNwKPIbISkS3rzl1Wb6YxoWqzFJUs9inuYEUvIpybbzDhM1GGYXjfu/o38ADKM+tmLy8zs5hQtSnGPnGJBOprklyffyqqlzV4UZ2x3HyGEW/e1TvAQygP1/k67Nhw7h0WGWhCFf8UrFjgU5+vm6h7EbAQGNrgRZntDSM+vat9wBMCd6P66trZD1abWUyo4lekVhYnA6MRFhMuZtjDvCjDaBPe1TFgDXAPjvNUJc6Bt869z7wrE6r4orCkuIvC2cAiwtklMs3ehtGmqAW2gqxUWO4T5801M++vM7OYUHmeafdNkLKOecMIR/TNAQZg2SUMo63iEi7S+BLIMhznqXXn3m+BFiZU3mVcyeIkh9AU4DJgKpCDhZ0bRlvneM7Ad4AHgAccdO+aWVZN2ITKQ5z52AI55pdOipwLegWQD6SZfQ2jXREEdgN/E/RPENi8dtZ9duYqCthsv5mMeOpzjmh9H8VdClwLjMEyTBhGe8QhnKNzAEgu6NHui4bv27Nsk4mVeVSxI3/lwoCgYxFZCjoT6GnibxgG4XyB64B7VWXl+tkPHDKTmFC1OgWrFqWh7lmE96NOI1wzyuxpGMZxaoEtwEOo3r9u9oPbzCQmVK1C4WMLxA34s0VDFwGXACOxNEiGYZycELAHeALVO9161r1ywYNWRdiEquXIX7XY57j1uSrOUsJZJvpilXcNw/hsFDgKvAD80ac88/Ls5ZVmlsix/ZQIKSgp9guMROQ6wod4e2NZJgzDiMwhSAZyBfJUqO6+eNiuPcvetNRLJlTRY1zJokRBJwFfAOYSLm7omGUMw2gEAaAb0BfE7b5kxM499286ZmYxoWq+J7W6OFnUnQHyBWAa0AlbMjUMo2n4CScC6CeQ1GPRsB17lr15xMxyapfU+FRPqjjNEbkA1auBsVjQhGEY0SEE7AL+psifnCBvrZ37gCW1NaGKnEl/myZ1gaxsoBiRywmX5kg0yxiGEUUa8gRKiQh3oO5ra2c9aEltT4It/X1SpB6/UOr9aXmIXIHIlcAQIMEs0z5IcxykYbprGK3gKKQCfYBuIKU9Lhm5d8/9G4NmGhOqT2V8ycUScvz9VeQqYAnh8HOL7GtH1KmaSBmtLVbJQC8gF9Xy3guHfbDzgTct7ZIJ1X+SX7JQXHEGCPwX4TNSuWYfwzBaiQSgO5DrilR3XTxy295lG20Z0ITqIwpKih1RBgvcAMwPu+EWfm4YRqsSALoAvRy0uueSEdt337+pxsxiQkVhSbEPGIFwPTCvoaNYkIlhGLHgePh6HlDbffGI7XuWbWr3B4PbtVBNeLzYrw5jCS/3zW3oIIZhGLEel3OAXgJ1PRcN3b572ZtVJlTtkIJVi3yuUEQ428QsoLN5UoZheAQHyAbyEHF7LBq2fc+yN9ttFot2KVQFJQtFkEmgNwIzsGwThmF4U6yygFxEtOeSEVt337+pXSazbXdCVVBS7CgyEfSLwNlApomUYRgeFqtOhKOQQz0WD39vz7JN7W4ZsF0JVcGqhX6gUOB6YDrhstGGYRjxIFa9gGCPxcO3tjexajeeRMGqJT4IjUP1OsJ7Up2s/xsRz+gE8jSJbO1EakIn0hOySU3MIi0h/OM4vobrUhAJlyhT9YdfMAmiWk9Iw2NLZd0RUKW89gDHag9RXneII/V7OOBUcFiD1KqawY2TEQTeAf6A6rJ1sx9sN+Xt24VQFZYUOwojCJ+TmoOVjTcayRT/YH5+zi2t8lnH6kLsPVbLrvIaSqsrKK/ZwcHKbRyo3MpbbKU0ZLkz2rlYvQ380VGWrZm9vF2IVZsfrPNLFomig5zwntSFhCNpTKTaKV0cH2OTihiYNYncjD4cqKzh1m1f9pRQnYrD1fW8e7iKneVH2Fu+gR1lG9igmzkasuTb7YR64E3gdpTl62YvL2vrD9ym89iNfWKJSCg4sGFP6gLCIehGO2IAKYzPmkP/rEmM6ppO97SPJ8H/+/ulcfdMnZIDFPXIoKhHBuFC03MB+KCshjf2V7Cr/BU2H3qBV3SbLSO2TQLAMOAKhMrCkoWPrZ31QIUJVRwy+dE5UhMK9Rf4nIY9KTvM2w7I8DmcnjSFwTkzKezemV4ZSe3m2fMyksjLSCJ84mIG9a7y1sFjbCndzYZ9q/hX3StUueZ1tSGxGg1cq2h1wepFq9edu6zNBli0SaEa+NQ1UlNXngd6uX6UFsloo3RxfMzKvpTCHuMZ1TUdn9jKLkDAEUZ1SWdUl8HMHzqYupDL+r3lvHNwI6/tXcEr7CKIeVxxTAJQAPwXrltX+Oj81WvPf7hNlghpk0LVsa48y4VFwAKgB7Yn1fba2OdwbsaF5Pc4iwk9MvA51sSnHNV8DhN7ZjKx52QYM5m7Xn+R3+35rRkmvkkExgPXasBXeeY/i599ZuryNjf7aHNClb9iQaobFqjFhBM7Whb0NoIAZyWMYUqfKzirTxYBE6dm2tPs10ZIAU4DyisqKZu04cuvvjjql21KrNqUUOWvXpgkIfd84ApgIJYdvk2Q4/g4v8tVnN23iLyMZDNIK5MsQrUFZXidDsBZwJG63Xsrxj295N1Xpt3XZhqtzQhVQUlxAq6eSbg67zCsMm/cM46uzBzwLWb0yzbvKYZ8LvcbDOnchxc+eJbHjzxImYXBe3XBoTNwHqpHfTX1/wfsMqHykkitmO8HioCrgXzC67ZGnDIzZRJzBl3K2G4dzBgeYXSXdEZ3mcNVwdn8fesh1uy8i3/WvW7BGN4Tqx7AxSpydPyKBX98+bwHj5hQeYDxqy91XLd+mKJXAacDadZf4/MNm5lyGnMGX8qYrulmEI+S7HeYOyiHuYNu4lBVPc9u38bK7bfxNsfMON7AAfoAl4QcKRtdUnzf67OWx33YelwLVdGjF4obqslVca4kfHgk0/pp/HFuykSWjLySAZ1SzBhxRHZKgPlDB3LhkDt46v1Snn7vtzwf2myGiT0+YDBwRaJSXlgy729rZ/2l1oQqRrj+hE4IS4HzscKH8TfRIJeFI7/FxJ42v4jrUVGEGf2ymdHve2wurWTF5sd5rGyFZcWILQFgpApXKIFD40qK//nKrOVxe8YqboWqsKQ4tSHjxELsrFRc0ZckFve/lVkDOmMxEm2LQVmpDJq4kCuqL+KJ9zaxbPcvOOBaEt0YkaxQCFzmwIGCFfM3rTvv4biMhIlLoRq/clEghHsWsBToi52VigsSRbi251eYP3QMiT5rsrZMp+QAi0aMYc6gu3l08+vcu+eXHLFowVjQATgT2IPP/2tgdzw+RNyNFmMevUAUd3SDSI0inEbE8DhTA8O4e/yfWDJinIlUOyItwceSEeP465n38KVe3yTD2r61EcIp5C5EdX7R6iVxuREcV71m1ONLxOdPzHOFS4EpWISf58lxfHx/0P9w69k307ejHdZtr6QGfCwcPpIHp9zFkqxi/Lbk29rjfB6wRN3gzNErLvHH4wPEDQm+UEcR5hOu0Jtl/c/bXJB+NvefcRcz+mWbMQwgvCR4Q9Fclk24k5kpk8wgrYcfGKpwZYJTP2HcioviKmtP3AjV2JLiJNCZhJPN5mLBE56lgyPc3P83fHPyFWQkWoIQ4z/pnZnM96Zexy9H/B+DsGMJrUQyUKRwmeP4+o8vmRc3Y2hcCNW0ZaeJDyYTzuE3BEuP5FmmBoZzz2l/Zs5Aq1FpnJrTcjO54+w7uCLnclsObB0ygXNAFoVIyBn3xJVxYfW4EKqyjJ5Dgcuw9EjeXVcQ+Eret/nJtG/9RxVdw/jMaX7Ax+fyz+G+8XdymtPfDNKyCNANmIcw23Gr4qKyqOeFqqCkOIdw2Y6pWPCEJ+ktSdwx7g8sGDbcihYaTaZvx2Rum/59bsj9qnlXLYsPGIDqYoGxBauXeF4HPP0Fx5YsSgamAXMJh1ha9/UYp/uH8LvTf8/wHJtDGFEYQUVYMmIcfy78I2OtMHdLkgCMU9XLUe1lQtVkT2qxz4eOIBw8YbWlPMjS7CX8dNp3yE6xo2xGdBmUlcqvp/+SS7IXmjFajnRgOuouGPfE5R1NqBpJ/pNLBHG7gC4GJgBJ1qe81GmUr/X+EV8onGUl4I0WI9HncH3hHG4Z8D+kWz9rCQToCjrfCdWcOX7lxZ6dcXpSqHx1tYmoXgScB3S0/uQdkkX4/uD/Zf7QvmYMo1WYNSCbP0+4k1F0MmNEHz8wGHSRiwyd8tBcT84IPCdU40sW+0KOfzLhZLN2XspL6wSO8IvRt3NOXztrbbQuvTKS+OW03zA9uciMEX1SgEkqcnF1anKXgpULPDfmek6oXNwBgl6GlZP3FJk+h1+NvYN8q7prxGqilODj/039Il/ofr3NXqOLANmEg9bOwXE8t9XiKaEqKFmQpeh8rFKvp8j2+fif/DsYaZF9RqwHLIGloydyU99f4zO1iiY+oB+wBNUxJlSfQn5JcSLIZCwU3XueVP7vGZSVasYwPMO8wTn8ZOjvSHEsG3sUSSRcv2pxYcmibiZUn2Dc6kscxOkNFBMuoWxLfh4gzXG4dfTtJlKGJ5ma15HfjP09Ha10SDRJB6Yr7pzxq4s9EwXoiRZ23GC6qDuPcOkOGxW9MLUS4ScjfsfoLulmDMOzjMxJ49fj7iDbZ8cso6gJPYB5IZcx40uKHa98qZhy2sqLfcAkYD6QY/0k9gjwzQG/oahHhhnD8DyDs1P57/w7yHFMrKI1TyVclPaikIgnskvHVKjyS4qlVnx9QJdg2Sc8w5d6fZOZ/a2GlBE/DMxK4b+LzLOK4lw1CzgH1an5KxfGPAowpkLlF18q6PmES3hY+VcPsCBzLsXDR5ohjLijf8cUbht7Ox0si0U0CCeuhQUi9MtftSimWhGzD5+8erETUrcAOJ/wkp/1rhgzXvK4ruhiM4QRtwzrnMZPRt5OsmXxjwbJwCTQeQmuG9OzKTERqvErF0htKNgddB7hQoiW1TTG5Dg+vjn5/5FoEVRGnFPQvQPfG/Jb/Db3jQZZwIVBYXJByeKYRWPHZFQKIYkqcjpwJmA79jHGQfn28N/SzQoeGm2EM3p34su9v2+GaD4+YIDCJYKbN75kYUzUv9WFqqhksSPi9AEuBHpjARQx59ru1zOhZ6YZwmhTXDS0P4s7XWSGaD7JwCRFz6sXiUksQasLlaDJqjoHmIgFUMSc05z+XDpyohnCaJNcV3ghZwZGmCGaO2xDZ2COozoqv2RRq3tVrSpU+auXOCHR0YheQDgJohFDUh2HL0/8ttWUMtosPke46bSvkSe2rN1MEoDhoHMEt9XH7lYTqnGrLxVRyUJ1EZYmyRN8Ie/H9OxgNSmNtk2n5ADfHP0b/DYfa65X1RGYDhQVrFrYqgFwrSZUCYpPNDQVOItwPikjhpwRGM68IXlmCKNdMLZbB76c9wMzRPPwEz5bNRdXcwpWFrea9LeKUBWUFEtQ63sr7jzCeaQsBjqGJItwXdFXLHjXaFfMG9qfc5IKzBDNIwU4A2EK0nqrYq0iGD7xJUvYkypseFAjhlzb82vk2pKf0c4Q4Mbx11mapeZrRg9gvqr0GttKgRUtLlRjVy5xQqr9FJ0FdDNvKrYMJY2Lho4yQxjtks4pCXxpwK/NEM0jCSgSdE5yKNQqe1UtLhqOhFJAzwLGEc7Ka8SQq0fcRoJlnzDaMWf3zWJu+jQzRPPIQji/3mFo0YqLW9yratERK79kkQP0Az2PcDi6bYvEkOnJRUzKtYO9hnHtuEut4GLzCACDVWRO0PG1eHBcy7aUhJIFnU24tonl84shfoRLR11jhjAMIDslwLV5vzJDNGN0BzKBsxx0RH4LF1hssZuPW7nQwXWGAXOwfH4xZ0GneQzoZHEshnGcCwbncJrT3wzRTK8KmO6IZBaubrnACqflnkBTRfQiwnH3drg3hiQAFw+fbYYwjE+4BJeN/ToOasZonld1tqoOVzfUYuGULSJUhSXFjiuMwQ73eoJ5neZZZnTDOAkjc9JYYIlro+BVydmCL71w1eIW8aqiLlQFKxcIqhkKs4E8LDt6TPEjXDgkvryp8togrk1yjVZiwfDzSLRCi80hDZih6GBVbRHnJ+pLcgHUCYozCpgCdMAi/WLK3IwZ5GV483BvTdDlpV1Hebf0FTYdeJotzi6OhlwU8Av0JIk+/v6M7T6X0V37MCgr1Ro0CuypqGXVe//moQN/iOj6e3bfSm3w88zoX0DXtLYXE9U9LZHi7CXcffBe6xxN1hEdAMwRYRNQEe0PiKqIFK5eLKjbUZUvgX6ecHVII0Y4KPeOv9NzQRRHa4Ksencjy3b/ggNuKHJvXbtx/pBvM61vVtQ67t/fL+Xmd6475XVT/IP5+Tm3xHV/qKwPceerK3mg9EGCTdiX8Qlckn0Jl42eTkqgbS2UHKisY/7zl1Gt5so3kRCwUdD/EnXXrJn9sBvdsSyKqBvyqTII9MwGb8qIIbNTz/CcSD2+5SDzn1vKf++8tVEiBbBO9vLtd67jhlU3sfVItTVwI1izu4zLn76Se0uXN0mkAEIKdx28l6ufuob1e8vblH1yUhNYlHO5dZSm4wPyFC50xR/1pQ8nyjdLAT2dcMhiwNoutpw/ZLFnvkt1fYgfvfAnfvjeDZSFmjfZWsNOrnz5Sv7y9j5r5Ah4YushvvTG59iutVG537tU8aXXP8c/th1uU3aaN2QqKY4dAm4G6SBTgeEFqxZGW1uiw/iVCxyUnoTrlaRZm8WW8ZLH8BxvNEN1fYhb/vlTHqt4Omr3rFLlZ9u+xINvvWmN/RmsePcg3998A8Eor2jVqvKdd77Ak1tL24ytslMCXNrlc9ZpmudV9QKdoa5GdfCJmlC5IgEVzgCGYVkoYs6U3jd64nvUu8p3n/0R/6zf1CL3/8X2H/LI29utwU/CltIqfv7ejU1e6jsVQYWfvHsD77ehZdjzBhVZgcWm03CuSiYjzsD8VYuipi9RuVFBSbEodFU4D8tCEXPSHIeZ/XM88V3u3vAczwXfbtHP+OW2b7Fhf4U1/IlebNDlZy9/qcWDA6pcl9v+/S1qQ26bsFvnlATOSz/HOlDTCQCDBJ0sUSzpFB3FE8ePhNcmsb2pmHN+x4s9EZW1dncZf9x7e4t/ThDlN+u/2mYGy2jw2OY32SitE/DwCvt4fPP7bcZ25/SbZx2oWV6VdgKdKqq5hVHKAdjsm+SvWiQKXQh7Ux2xc1Mx56y+Z3nie9z7xo9xW6k7bJRyHn3nLWt8oKo+xN27ftaqn3nfju9TE2wbE4Vx3Towjq7WkZpOIjAa1TGiGpVtoGYLlSsBn6hORHUU4YJaRgwpIpdhnWMfRPGvnUdZozsa9TspjsMkpx9TA8Pp24Su9NCOWwlaSgtK3ttBaSjUpN9taoaGvW49Je/taTuTvT432WDSLK+KbBWmK9KxaGVxs2erzcpMkb/6EkGD2cA0IAer3htzTu/zBU98j7+/d1fE13Z3AlzW5+ec2z+bxBNqBG0ureThN+/n8WPPRnSfnVrPyncPcmbvThF/dnV9qM31gVd2L2/U9dOSxjK931UUdO9ASsBHZX2ItbvLePK93/NM3RsR3+f1vY8wb/AX24QNZw3owu93OM0+StGOSQImqjBC4SAQjJlQEar3ichI0HyiuHFmNNU9VqbmdYv596gNuTxfszaia8fShR9OuY3slP/c2hyUlcrNU65h0FtncNv270Z0vx9vvZEfb22/feBYXYjn69+I8OUXvtznF1w05ON9JjXg44zenTij9zd55O1t/HzbNyNawn2+Zi3VQZdkf/zPV5P9DvOylnLngT/bwNLU4Qi6AnNUeRkob+7NmsS4FcUCpIFOBHpjpTxizmm+wWSnxP5kwPo95VRFEG2W6jh8d8rPTipSJzJ/6ACWdr7EGjgC3jp4LOIzU1/q/f/+Q6Q+yUVD+vClvJsj805V2Vxa2WaxDBBvAAAgAElEQVRsOSF3gnWoZuo9MEWEgc0NqmjyL/scHBF6AacBli3UAxTlLvHE99hdvjei65Z2/S+6R1h+5JKR55BqWQNOyb7KuoiuG00W84YMiOjai4YOY1iEZ/j3HattM7Yc2SWd3mLb7s3Ul26g54Kb2NwbNRFNEHQMMBQLSY85AkzKzfXEdymrjSy1UVHP0RHfs0Oin3NSz7KGPpVXU78/ouvO7n0jToRb3D4RZuRFdoC8ovZom3qnzumy1DpV80yYDkxxcXo2p1x9k36x6PGLBVczFM4hXOHRQtJj7U1JHt3TvVEc8Uj1roiu65OZ3Kj75mWOsYaOEv06dmnU9T079Ix4ZGpT71XPfOsszSMA0k9gkqNukw93NkmoXJ/jU8cZDDIeC0n3BJN6LfHMd/FJZA52eW3jAoFqQ1Uxe6a0hPioWONzMiO6LrGRAQ+RBkgEfG2raMLwnDT6STJGk3GAzsBpiNOpsGShNPUmjUbFSQJmANnmTXmDgu79PPNdMpIjOyy5bk/jAoHePvhszJ5pSOepcdEP0hIimzfuKm/cXtLuCPeeMpPa1i6AAGd1vdQGmOaRBIxUZIhK0yq+N1qo8lcVO6Jud+B0LCTdE/SUBPp29M6sLyOxR0TXPbvtfyO+57uHq/hXfWwyT2T5fMzoPzgu+kKkh73fOfjPxk0SDjwR0aA+rHPbi6vK7z7OBplmOvpAb9CxqNukFbhGC5Wo+oDJQF7DFzBizPgO0zz1ffp3isyjej74TkSZz2tDLr9b++MWywL+maLrc/jByN+RkRgfpy9yOyTRW069V/nXI39hd0VkXtL2o9U8XrbqlNcN1w6eOB4RbUbkpJHhs4jTZjqm6cAEB8kZv3JBo43ZqF+YsOoSccSXCZxFuIKvLft5gH6dzvbU9xnZJfIX+5fbvsXDb23h0zIfHa6u55Znf8aLbmSneJNFyPA5zfrJ9DmM0k5cnrOUeybdSX63+Np3mdTxvFNeU63Kz1/8AcfqPjszR3ltkJ+/eDORBL3nd7mgbboDIpyWONEGmuaRAIxVGBgSp9Gzvkb9QgjXQRkGDMGCKDxDYY9Mz73YZ6fO4JHyU8/Cgyi3bb+Ff27rxhl9r2dQVmfSE3zsq6xj0/7XWH7gDsobkb/vx8N/x6TczHbdH2YMmMGyNY+c0v980d3K157+Kl/I/8FJi2y+vr+C/33lG2yQU1fydVBm9D+9zdp0WJeZlGz7lw02TccBOisyRYWX81ctql8/c1nEL3ajhErdUKIK4wW6YXn9PEFvSSS3g/fmDDMHXsAj61dFfP062cu6bd+CbU3/zNFktXuRgnDqqbOSxvJ0zaunvPYV9nHV+quY5BvEyC7TSUnIobJuP2/se4IX3fciXmw9N2Vyo48bxBNju3ZtVt80AEhCmCKqdyJaDkRfqArC64o5AmMIF0e0ZT8PUJQ5w5Pfa3hOGtOTCnkywpx/0WB6n+9Yh2hg8YjP88/1V0eUTslFeCG0hRf2bGnSZyWKsGjk5W3ann07JtNTEtildda5mk4A1f4CY1A+ACLO+BuxVySO34cwiPCyn2Wi8MoL1OlMz363pWOuJVlaZz4zNTCcCwZ3sQ7RwLDOaVzXs3VKVVzf6zsM6NT2A4AnZsywjtV80oHpKo07nBaxUKlqMsgooCcW7ecdz8UDtac+jf4dU7i+909a/HNSHIfrCr8ScUqg9sKCYaOZltCy2TymJxdx0dAh7cKevTueYZ2q+SQq5CuSN27Vooj1J6ILC0qKHXA7gxYSzohreIAUEU+dnzoZ84bksSBzbovdPwH4wdDf0ivDYns+ic8RvjP1q0wNDG+R+09LHMPNU25oNxOEIdlp1qmajwN0EdXJgvob80sR9XmgFzCyYWwwPMAY6YtPvD1KCPClCcUUdzw/+gOxwC2Df8vkXh2tM3wKyX6H7039BrNSTovqfeemT+O7p3/1Y4Uu2zoDs1Jt8IvOkJAOOtFx3bTxK+ZHNIBF2ssSgbFYFV9P0bdTYXxMoQS+OH4BN+R+FV+UdDVPEvnt6N9zdt8s6win8rwDPm6Z+gVu6nMbKc2c2KQ6Dl/v+2u+PflKkvztaygIOMIYcq1DNZ9EYCDQz5XIavec8qKikgUiDanasbNTnqJbemHcfFdHYMmIcfx+3B8YpZ2afh+UizJm8scz/8i4bh2sEzSCi4b05MEpd3FFl8sbLVipjsPVXa/hoSl/Zt7gnHZrw/6diqwjRWE4ALqpSD6OL6Llv1P21sKVxT6gUIVlhNMm2Za1R/hzwR8izu3mJVyFp94v5Yl3f9WojBMzO8zgoqHz6dfRtkmby+Hqep7Zfoh3Dq7guernKAv9Z6Rwps9hasqZDMqexVl9sslMsiLej7y9k1u33WQdqPlUAvcizncQp3Tdufd95kGKU/Y8FxIknNvP6k55CL8QtyHBjsD0fllM7/dDdpbXsHb3Ud47/HcOHnufstBByqSKTE2la3J/uqYNZHDn8UzomRlxqQnj1HRKDoTL0A+5hpu5hmN1IQ5W1XGsLkRago+c1ARSAxbc+0kGZnW0g7/RIQAMVtU8CB0BQk0WqoLHF4gqKSpMEov289YShKaR0AY2snM7JJHboStgpRRiSVqCj7QEe8VPxYCOyQjEID1y25trA30E7a8qm04lVJ850qkjjgh9JHzQ1w75eoieSQPNCIbRyiQHfHRzbCiMAg7QCRgKmppfUixNFioEP0IRljLJc/RIG2pGMIwY0N/pZ0aIDgnAWAkLVtOFykFSgELCUX8mVB4iJ22AGcEwYkD39MFmhOgQCHtUdBPUaZJQFZUsdIAeQD/skK/nyErJNiMYRgzolj7EjBAdji//jYLPrvb5qUKlqn5UhwJdsNx+nsOLpT0Moz2QkdTdjBA9kkCKQFIKVi2URgsVkKDCECJYPzRaFzGhMoyY0cvevWgSAB2laEf3M3TmpEJVtLJYgI7AACDFhMpjMzqf0+7S1xiGV+ialmhGiB4+wqt2Q+UzVu5OOtq5gk+FXKAvjawCbLQ8PUIpZgTDiBEdk/w4dpIqmiQ7MMFRDTRKqBQ5ni29F7Y/5Tmy/ZYY0zBi5gI4Qiefzd+jSKKGk56nFq1aIBEJ1biSRQIkK9IP6IAt+3mOjKSuZgTDiCE9QhlmhOjhB3IV7eXqyZ2n//hHwRVBMwQdimWjMKEyDOM/6BSwyL8oIkBauIK8+CMUKhXCCWiHmFB5k0wTKsOI8TvYzYwQXdJEZKSIE5lQNexP9QRysf0pT5IcyDEjGEYMsVWNqHtUSaraX9H0glWL5ZRCBSQqMoJwFUbDgwQci/ozjFiSErA9qigTDlNX7YuGfJ8pVAWrLxcRX6Kgo7BlP8+SaGeoDCOmJPhsshhlHCALpB/hVb1PFypXElAJpAODTag8LFQ+EyrDiCUBX6oZIbocj43IO1lAxcdGPAlV+HBrewE5nKoEiGEelWG011FVrMhkCwhVEmgv0PSCVYvkU4XKUdfvqA4nXM3Xzk95lCTzqAwjpvgc28JvCbMSDuLrzCfKfnzMxVIRv8BIUCvrYR6VYRifQrK9gy0lVD1BO6N8ukflokmKDsLqT5lQGYbx6e+grWq0BA7hbaf/KC31obXHlSx0BOkadrvs/JRhGManIWI7Iy1hVsLbTrkgSfkn7FM5H/lc6nfQfoTLehgexnXNBoYR03dQLXt6C+EH+oCmygk2/lCoFHwK/bH6U54naC+JYRhtEx/QD0glnM7v40IFPj9KPyziz/OEXBMqwzCPqs16VHlAup6gQw5AfsnnBHxJiHTHUid5X6jsJTGMGAuV2aCFCGeoUDqLfhQr4QCIljlofQ5oR/OmzKMyDOOzsbliixIgXF0+8HGhcnDEoRuQgWWkMKEyDOOz30FTqpbEj0g/RAIFJQsl/A+AqjpAV6yib1xQURcyIxhGDKkOWuhtC+IT1b6IBI6flApnphBxUO1iQhUflNcFzQiGEUNcrTQjtKBHpUIeEkhUJwn4cJnPCYDkAEkmVHGw7BAqNyMYRiyFyjWhakEcoDPqdhS31gFwilYuFHFD6aDZWEaKuKAmVGZGMIwYUhs0oWphEiGYi9aFhcoVdVToAGRjgRRxwbG6UjOCYcSQqqBNFlsQAfyC9JKGIor+hn9MBzqZUMUHlXWHzQiGEUNq6ivMCC1LQIVc0LBQaTiderqIeVTxQnntQTOCYcQQW9Vocfyo9qJhO8ovghCO9rPDvnHCgar3zQiGYZPFNi1UAj1oiEx3HNQn4Vr1FvEXJ7zvO2BGMIwYcqRujxmhZXEUMl0kdezKxeK4kKAW8RdfL0nItQOHhhFDdvktmKKFEcJ5Z7Mc1HHASQCnM7Y/FVfsP1ZrRjCMGBBS5UjIDt23AokOdHYExxFIlHBVXxOqOGJfZZ0ZwTBiwNGaIK7tkrQGAUU7u7iOX9EE7AxV/AmVeVSGERMOV9ebEVoeARJE6SzgOEACkGVCFV/UhewslWHYJLFNk6BClgqOX8M1PzLFhCquSPJnmREMIwYcqLL0Sa3kUQXQcI1EvwMJGq5DZYuucUR+9w5mBMOIAZW1u80IrUMAkUzCS3+Sip2hiiuGkEb3tEQzhGHEwqOqtAP3rYQDpIqI39Fw+Xlb9osjCjtfYEYwjJgJ1VYzQuuR5EKag2JCFWcMzh5vRjCMGLG7fpsZoXUQwqt9aQ4iVtU3jvALFPXIMEMYRgyod5X3pcoM0XpClSiqyQ5oB/Oo4ofx0p+0BMt2ZRixYFd5DSE1O7QiCYqkOCDp5lHFD2O6nWdGMIwYse1otRmhdT2qBEGTHFATqjhiaM5gM4JhxIjSKqtc0MoEFEl2FEnDlv7ignRHGN0l3QxhGDFib8VmM0LrelQBEZIcEVLMo4oPJidNxOdYUxlGrNhVvsmM0MoelagmOqKaZLaID4blzDQjGEYM2ei+bUZoXY/Kp6oBRy0rRdwwtls3M4JhxIhDVXWUhkJmiNbFj0jAj2oiIiZUHidXAvTrmGyGaOBgVR2v7q3gQOVWqurLqKkvJ8GfSnZKXzKSsijsnkFmkt8M5TE+KKvm9X0VVNXv41DlNhRIScggPbEzvTr0YFSXdFIC3jx+sbnUzk/FRKggwY9IsnlU3mdipi37ldcGeXLrdp7Ydhsbpfyze/c7wgTfAMb3uozzBuSR5Ld4oVixv7KOFVte4oW99/M2x041fWZKYDhn9L2WaX06eWpPdk/FPmvM1scHBPyE61GZUHmcgdlntdtnD7rKI29t5PZdP6PKdSPqrUGUF0JbeGHbt7j3gwCX9vouFwzph88WD1qNIzX1PLDxKR44dB+1Gtkp2SDKM/UbeWbzdfxpSyLXDv4lZ/Xp5Inn2VH2ujVq6yKEI9L9/gbFMjzeWhN6ZLbLZ3/7UCW/XHsTG2h6och9bj23bv8OL+8azFcmfoNulnm+xVm7u4yfvnEDu7SuyffYrrV88+0vMHvH6Xxx/FV0SIztUu72I69aw7Y+Dg0Vfk2oPM5YupKdEmh3z/3SrqNct/7qZonUiTwffIelL17Bhv0V1qlakEfe3sYXN3y+WSJ1Iisrn+Mr/7iRvTGsrFsXcnmNnda4MZinC/hMqOKAcV3ntrtnfu6DI9z0xuepcKObWO1oyOWrr3+Otw5ZldaWEald3LbtWwSJbrtt4DDXvXA1+47VxeS5NpdWUWfNGxOhUpDjQmUL9x5mcPbodvW8H5RV88N3rmuxgaEs5HLT+ms5VGVDT7QnFz/f9lVaKmfrTq3nJy98l7qQ2/pCdeiINXAMxcoxkfI2SSKMa0dl54Ou8sMXv0pZCw9GB9wQv1nzOywRdpQ81Zogv3z7RtwWHk7+rR/wh1efaPXn21H2kjVy7HAsZtfjTPQPJ7kdhVY/unl71PakTsUT1WtYseWgdbIo8KdXH2GvW98qn3X/wft470jrnml658gL1sixQx3Ajlp7mDHd57SbZz1WF+LOHd9p1c987N2bcc2taha7ymt4pOyxRv1Osgh5kkiHJpyTCqLct+HOVu2Xm1pp8mScFNcPuIBiS4CeZHhO73bzrE++v5dDEaao8Qss6HgRE3udzZDsVByB7WU1vL53C/fu+UXEqW42Sjn//OAwZ/buZJ2tqWK/+ZmIiwlODQzjwqHXM6ZrOom+8ErB5tJKnt32IvccuCviIIzVVS9yVflV9OzQ8qlKX9tXHvXgECNyb0oaPKqg2cKbZPl8DMlOazfPu27XvRFd180JcPu4P3Dj+HkUdO9AWoKPlICPodmpLBoxhofOuJszAsMj/tz1u0qsszV1qquw8vCyiK79Wu//x8/OvpnxPTI+FCmAQVmpfC7/HP571P+R6YtsmVuBf+18t1Wecevht6yhY6lUDULlmim8yeSUM2gvVT3KaoM8X7fxlNclifDjcb9jZM6nC3h6go8fnPlNxkteRJ/9/LEnbb7cRN4prYzIe72m67XMHzrwM5dtCntk8K3Bv414aeelHfe3yjNu3P93a+gYzoWAkAPUN0xQDI8xMLv95PfbUloV0fLKpV2uYVjnU3uZCT6Hq8bdjBPBPQ+4Id47bAlHm8KbB/ae8poMn8OiEZMjut/UvI6cl3ZGRNduYEeL7y/WBF3Wuu9aQ8dcqFRrTai8ycSe7WffZEd5eUTXndmnKOJ7jsxJI197RHRtLLMexDNHqref8przOy5qVEb0ib0uiui6alV2V9S06PO9sb8i4jyFRtRRwsF+9Q4iNWYP7zGIFLqnt5+cdFW1e055Tarj0LeRpU6GdTk7outKq+ut0zWBo9Wn9qi6pA9t3EpCp5SIr91f2bKHtt89vNUaObY0CBXUmEflPQqz21faJMc5dcLRpCZkPg/4IosKqw9Z+HGThKrm1EK1p/yNRt0zuRHeV0ufMNy4/0lr5NgSRLXeERMqTzI4e1K7el6fnFqoSkMhjtU17thfWXVkNYRq6sus0zWByvpTC/xbpc826p6N2S9syXpVQVd5ObjJGjl2HF/6q3MUMaHyGH6Eoh4Z7eqZkwNdI7ruxZ1HGzXQ/KNiZdQ8OuNkE4xTZ/V/jf3sKIt8h+HNA5F7YC1ZsmXTwWPh+mdGTD0qcZw6B/SYCZW3KHL6xrz2TmszMCs1outWbbkt4kivRzfvj/gA8b6KLdRbiopGcaiqjrLQgYimxWt2b4/onnuO1XLPvv+L6Npsn4+c1IQWe753Dm6zRo49da5S6yhSjp2l8hRjup3X7p65X8dkUiLYgwonJX3qlNdtKa3itx98JeLPf+jo41z+xFU8ubXUZm2noCbo8sCmN7j4+cvZKJFFa96x8wdsKf3sJb2y2iC3/esHVEUYZTcuMK5Fn3P97r9aY8cWBeoFrXZE3QrzqLzFkM5D2t0zJ/gcZqafG9G1f9p/J794aTlHak4eqbdiy0E+v+6qRi/bbKGK72y+jpv+/n02HjhmHfEThFT5yzu7WPTU5fxqx0841gj7loVcrl13NY+8tfOkZTr+teMoX376C7zoRh5lN7rbohZ71rLaIC+Ftlijx16o6kSk2o+ICZWHSHUcRndNb5fPPqHXbB7ZtCqiax88+hhPPLeCqSlnMijrdBQoq93Fc3vvZTPNO7z7XPBtnl9/NfMz57B45IVWuh5Yu6eMe1//EWuaUeW20nW5dftN/GGnw5SUM+mckseR6j1sKXsx7Jk1Ii4iRYTp/bJb7Hn/veuo5ffzBnWoVvtRKhBb+vMKkxMLCDjtMz/wxNxMxm7qwqvsj3iW/ljF01DxdItM5R46+jiPv7CCS7tew4Jhk0lPaH/FsD8oq+bu1+9mZeVzUbvnkQ/breEfmtDdF3S+lLQWbI83DzyN4Q2PCqXaEeGoeVTeYUSX2e322X0iXDLie576TjWq3LH39yx6Zil/eWcXoXYScFFaXc9v1jzGwpeuiKpIRYOOPofFI6a16Oj4XNkqDE9QqyKVjoocxoIpPMPort3b9fNPys3kgg7neO577XdD/Oz9r3HVE9fwzPa2ezi43lUefmsLxc9fxn2lywl6UJev6fXLFo2KfftQJftcy1TiEY+qRnCP+VUpEyv14QlyJcCARqSPaat8sehSdjz1Bq+wz3Pf7U2O8Y23vsD09wu5dPS1baa9FHh88wHuf//rbFfvZlVbmr2EeUO6tOhnvLH/fRuMvNMtqxSpcQStJbxabF5VjJmQca4ZgXAKne9M/il9SfLsd3yyZi2XvHwFv3hpOfuO1cW1vd84cIyvPfk9frT1Rk+L1PTkIq7Nb/mKAmt3PmQvoTcIAuWAe7zMh+1TeYCB2dPMCA10T0/kt1N/T5H0iup9pyWO4Wu9v09HX/OzxLkIDx59jOIXLuOeDWuoqg/FlY33VNRy67/u5er1V/N8aHNU7jmOrny97230luhGSl6SVcz3Tr8RfwsHGh2orOMlK+vhFW/qQ23y9Vg8PBM4C+gF+Mw+sUGAb4wsblQ5hLZOSsDHGb3PRMtTeLNqY7Ncfj/C9blf48aiixiek8Xc3LkkVeewqfJVmisv9cDaipd5cvsKAvUTGJSdiiPejdw8Vhfivo0vcfNbN/NGbXQG5VwJ8F99f8VXxs9jWOcOnNNrNqX7D/Bu/c5m3TfD53Bj71u5fHRhq9h09dad/OvoP+zl80hXFeUZB16WgpIFecDPQM4H7MBIjBhNFnfM/K0Z4lN461Ald7/23zxb37gkoQ7K3A7TWTCs+KQlQnaV13DPhvt5rOLpqC0pjCaLS0f8kNNyMz1lw5Cr/G3zLu764JsccKPj/aU7wtU9v8H5g4eT5P9PL/WFHUd4+M2f8bJ+0Kj7Joowr+M8Lh01h07JgVaz0def+lGj+5jRYh7VXkFuAblPCkqKuwLfBq4Eks0+seGqLldyzThb+jsV245W849ta1iz92E2yWFCenLvtFB6MSl3MeN7DqB35qm79Wv7Krj39Vv5l/te1L7rOUkFLB39OU8EXDz3wRHu23QzGyQ6EYt+gcXZl7Bw+NmnFBIF1u0p49U9a3jm4DK268mLVKaIMM4ZwPjcpZzdtxeZSa2b7/JwdT2zn11qB329gQvsQPkisFoKSoo7AdcBXwPSzD6x4efDf8eUXh3NEI2gOuiypbSSyvoQVfUhHBFyOyTRKyOJxCbsQSnwxHuHuOfdm9iq1dEZ0BGKsxawaMRMslMCrW6jzaWV3P36//J07WtRu+fs1NO5ZNRS+mQ2bV5bXhtkR1kNe47VEnCERL9D55QE+nZMxhfDJdNH3t7Lrdu+bC+Wd4TqXeAKhLVSsGphKrAU1Z8AHcw+rU+iCH+fdm+jCsYZLUddyOXRzVv4w84fUBaKTjBsmuNwdc+vc8GnLJFFm4NVddz3xuM8fPivUfMQJjp9WTLq6+R3a5vDxLf/cRtP1b5qL4A3CAFvIc48HGerH9UgcLjhfxgxYIJ/qImUh0jwOVw8dDBn9bmL+99YxfLDzT/4esx1+dWOn/DYjiQuG3Qb0/tl0xK+Q2V9iAc3vcQ9+/4v4izkp2IgKVw59DbO6N2pzbb5wao6no2i12k0GxWoAo6snXGf629wscqBMiCDlq/ubHyCMd3mmBE8SFZygBuK5nLu4bP586u/5em65g9k71PDdzdfz9/f7c+lY25idJfoJCAOqfLo5t3cv+3b7NLonOvK9vm4Mu+nzB3Yo8XDwmPNP7e/b3tTHvOoXGSfqNYD+BFHQctRSkF7mlC1PsNy+poRPMyATin8eNpNnL+7jHs3NC+D+HH+5b7Hv165hrnp01gychF5GU2PY1qzu4z7ovS9AJJEuKzr57lo6IR2U8Dz79v/xzq6t6gXYScNK31+VMNCBaVYdopWJ9PnMKxzqhkiDijskcG47j+LqufyWMXTPPHSP7i86+eZN3QCGY0QhncPV0XN04NwKP+irIXMHzajXZU2eedQJRs4bB3cWwRR/UioHHVVRSo0vE9lvm8rMyX59JhGOhmNwyfCvME9ObffnSzf9BL37L+90QUaP0mtKrfv/R0PHLida3J/wAWD+3zmUltpdT33v7GKBw4vP2l4flOYGhjGpaO+yPCc9hf4+8KOtdaxPShUiuw87jz51UlQ1VAF6CFQ86hamcGdZ5oR4pCUgI8rxkxmTtV4lm1cxfLSB5u9x1EWcrlt+7f56wfJXDrgVmb0/3jARUtEIw4jjUuG/owz23CgxGfhKqw88Gfr0N7ieAn6naiEPaq1M+/VgpKF1WGhsizqrU1h92wzQhyTnRIOuJheOo27X/vfqCzDbdVqbtlyPf94fzBLR3+F4TlpPL75APe9fxMffMph2cbS1QmwtPePOX9gD3xO+/XoX99Xzl4r6eFFoapUSd6DLznsUYX/WUPAPoQKwod+bS2qFRhACr0ykswQbYBBWan8eNpNzNx5lHs23szrlDb7ns8H3+GF9VczgBS2UBUdT1CEK7rfyLyh+aTakQjW7Vljndd7hIAdQl2VaniZIixU4VL0+wiHqXfBktO2CkVZFpbe1jgtN5MJPf+Hv769jTt3fpfSUPOOJypERaSOZ8goHn4uOakJ1lANtn12/zIzhPcIAu+joXoaMsT4AVTEFdiHahkWUNF6s/Ds08wIbRCfCPOH9uXc/nfz0JvRPXzbFOamT6N4+CL6dbRUnify1sFjvE+NGcKTQqXvA3XrZz34kUclLi6i+wkf+rWAitbyqHpkmBHaMGkJ4YCLWZVF3Lfhrzx89FHcVlxVH0dXloy4hUkey+LuFdbt3mBG8KhQCbxPuIIO0HC4d93sB1yQoyCHsFRKrYar5ry2B7qkJvCVicXcWfgnzgyMaPHPy5UA3+j7a/733F+ZSH0Gz+25y4zgPVSgRpGdqvJhcN8Jpwu1DtgGVANJWEBFi/PirqOcN6CzGaKdMDQ7lZ+e/S2e2HqIBzZ/k7c5FtX7d3CEq3t9m7kDh7RK4tt45t3DVbwZZfsbUSGksAs42hA78ZFHdfwC4L0GoTJagXve++rDZbwAACAASURBVBoflNkaeXtjRr9s7pxxBzf1+QnZvubHLfkFlmYv4cHT72bB0GEmUhGwbvdmM4JHhYrwsl/lietN/o/8LQmJ6nuEM9aqeVQtzwdaS/FLlzMtsZDhXc+hb2Yuw3PSSLaBps3jc4SLhvRmer+7efDNF7hn3x3UNGEpuLm1odrtasaOe22E8ybB40Il+lFg30dC5RICPpDwWSrbPGlFP/fJmrU8uT2cxiVRhCJnIENzzqJPx2EMz0mjc4qFE7dV0hN8XDVmKtPLx3PPhvt5vOLpiF6+Kb5BLBn9lahlX29P7CyvYZ3sNUN4V6i2oVStm738w1fhY3OKgpXFGQh3ArOARLOZN+gnyYzLOJs+nSYzqksn+mQkt+tsAm2Zi1df9qml2k/k0cl30T3dXtGm8PBbW7ht+y1mCO8RLj8PNwBPrpu1vO4/PCoAFakHNgk6zYTKO2zVarYefRyOPg7vh8swFDoDGZwzld6ZIxjdpUNMypwbRjyyZtcDZgRvEgJ2AwfQj+ed/ZhQiUgQ9A2UOrOZd6lR5fnQZp7fuxn2Am+Hz8ycP+hmpvfLMgMZxqdQWl3PS0ELpPCwUO0UOIDIx4Tq47v2TkoQSXiHcCol26eKI15hH9/ZfB3LNlo5bcP4NJ7dXmqVfL1LEGQnSOnaWcs/Q6hUFXUPE466sEzqccivd97Ka/sqzBCGcRLe2LfcjOBNlP/f3p0GyVVeaR7/n5tZuwQSm8BYsljM6jZmNXgZE7jdoMqSl3a32exuT3dMxPRET0zEzHzsmQ/TM+GYiR67J2Zs7LYbMJZqQRgEWlhtJLGoKrNKQhtCGwjtUpVKS+1VmffMh1vVFgIttd/M+/wiCBxhG6pOpvLJ973nPS904f6h+8dvJP1oUIU9EA71474ZtP1XrK/2qzuXqhAip+kZKrCqX5ckxlQIdBq+2wgLZw2qXKbRDe83eIdT5ixJcdl24k0VQeQ0az48NqazajJlQdXuxi7Mzh5Uw4aAHURX02tAbREaMO3aipxu46GVKkJ8DQF7wQ5lM03huYPKghALOgzbiZ5TFaVqNKVA5COfgqHzavdLKkQ8OdCDsxXnEw8RBp/w/3CHE45vRdt/Rakm0MRskVM17zvOyVDbfjEOqm4z2xAdkTqPoMplGtydLnd7DzVUFKWKdI2KIHKKdw6uURHiHVSdZmwNPuH51CcG1chK2fDdRNfT636qIlOZ1vw3kRGhwyvHlqgQ8TUIbHX8aHNtfXjeQRW1B/peovupFFRFpip9gYogMmzD4S4Oh/oYi7F+nGYPOeOQy+AM30DcsQPALvScquiUp6tVBJFhbQfbVIT4cqDLjZzbmZv3PjGo2hY2uZn1YrYNOIHGKRWVyvQMFUFk2OqDv1ER4itPdBxqP2c5DnXGG/o8eqi1BTiCzlMVlSo9oxIBoivnt9GrQsTXAFjOsB47y02WZwwqwwu4bx9OOm3/FZEKBZUIAG0Hd6kI8dYLnjPoy2UafNRBlattcJzjOBuBPrT9VzTSgZ5RiQDk9j2jIsRXdJsv7AI/63CJ4Gz/pZkNYawluvZDioSZzlGJHOsfYm1hhwoRX4PgG8DbHQ/HHlTpIG9BsIHoej71dxaJinRaRZDEe3PPcd09FW+9YO8Ax3OZJh9zULXcv9jdvRNogzP3uEu8VKUDFUES790jL6oI8TVy7fwOCM45Aemcn2jmPmCwKko/KY6gSqkIkuxPwdB5redlFSK+hoDtju1y7Jxd5ecOqij5NgK70TT1olBdpqCSZFt/uIsTBZ2qiSkHuoHNQHtrpn78QeWGO3QAb6PtvyJZUWnrT5Jt46ENKkJ8hUA78I7h55Up5/xEy9Y2RneFwFvDf5e4B5VWVJJwaw82qgjxVQD2uqU2hJY+r1268/vq7Z4HthONutDh35irLtOKSpJrf9cAG+hUIeJpZOGzHmhvq110Xm2Z5/eJZkFI1KKeQ9t/8V9RqZlCkrya2ndIRYi348Aq88J533d4XkE1PNriJLAO6ESz/2IeVFpRSXJtOPScihBfQ8AOsI1g5302Nxjlv2ALsBN1/8VWhRmpwFQISaS+fMjq/qwKEV+9wOu4HzvbbL/xBFVINJdpM9CvesdTpUJKEqx533H6XdMoYioE2s39dXMfHM3/8byDKpdpdMy6iZ5TdaDtv1i6INTzKUmuzYffUBHiawBoBXabjS4/RvUww7GCYy2470bbf/EMKq9QESSx3uhcqiLEVzfwu9Csq6WuaVTL3lEFVWttfejOAcyah/+lWmPHzAxmqwiSSLuP97Hb9VQipobAdkRDaG3UneOjbg8zs37HXgGOKqjipyKtKz4kmVoPdKgI8TUA3mywNzWGx0Zj6GO2ENjs8A4wqPrHS6Vu95WEeq9D09JjKgQOA1k8PNEyim6/MQdVa2axg3cBLwJdeg3iFlQzVARJ3iehw5q+1SpEPA0B75n7RsY42WhsJ0MtyGNBM9g2NFJJKyqRaba1o5vjmpYeRyPDIrKY7c3WNY3pRRpTULkFDnYAeA3o02sRHxWpahVBEmfLkb0qQkwXu8B+N3s9NBtzVowpqNoWLHI87HX8TWAPuqY+PiuqsgtUBEmcDYeWqwjx1Aesd/fNoY/97O3Yh8KZ5y2aqJ5Fg2pjIx2UqwiSKIXQeWvoHRUifpxoNuxLKehaN4YminEHVWtto2PWQXRPVTuaVBELQwXtxEqyvNvRQ2+oj58YGgS24LyNj2/XbVxjtodvZ2wBtqKmilg41ndARZBEea/joIoQT13AC463Z+sax3XmdlxBla1tDM39w+FV1XF0AHjafXBynYogibKt43UVIX6GogWMrzEb/yJm3BcXuVkvUfefmipiYD2H6ejV4laSo6V3jYoQP93Ay06w3wnGvYAZd1DlMo2hm70LvE10xbBMIwfe2ntMhZBE+PBEH4dDfT+OmTzwvmNrHHpax9FEMWFBFX04pnqc1DKi6+r1VHOaZff9WkWQRGg9qOE4MdQD9qYRbA8sNSHfIiYmqIKZoQcV7wBr0AHgaffawDq2tHerEFLy9h3X/VMxUwD2gq1yKz+Wq100IX0LExJU6x54zAMPTwDP4X4INVVMKweeXP9jQr0KUuJ2draoCPHSC7QZZNPeN2EPy4OJ+gcZvQWDDcAbWlVNv9X5rSzemFUhpGQNFkLWo9FJMTIyJf1VMz/SnGmcsK/KExZU2dqnHQ87DVaiZ1Wx8NP9P+b13Z0qhJSkHZ29umcoXgaATQ5r8u4T2uESTOiPacEgZq1orFJMvt4Yf//ev+ftfcdVDCk5WzvUSBEjDhwFW2oWHmybwNXUhAdVNtPo7nYQeAU4oFXV9OsOQ/7Tpr+hcfNGCq6HVlI6Dp7U1nbMVlNZN3vdrWzCzwsEE/0PdGPAsTeA9UC/Xr/pV3D48Z4f8bcv/ketrqRk7OxcqyLEZzV1BGyJYYdbFyye8G/E6Yn+B7ZmGvy2Zd/fmwoKL4PfAcybjECU0WvjEG0b/4Y7N1zBvVf9O+781JXMn1U1pT9Dfz5k8LQL7roHCx9Z7YUO3YP5j/xvBgtOecq4elYVVWUpvZiJ//LlrGePChEP/UCzO2976JMyFic9Gf/QVMqH3O01w2uBOUCVXsv4yNlBcrv/C+yG2amAG30+M8ovpqrsQtwL9A5+dNU1FPbTn//ouaxujjF42s5ue6r/I+cSCh5tPU6kcuB7Fz/EX99WR40CK7H2nRygX1vZcRACB8GWBwHt2dr6SXlRJiWocrWL/dYXvr8vnQp/C9wOzAVMr2n8HCuEvM370P/++Ddqp2CSzSCw6GgjO159i//1jR9pdZVQ7x/rVRHioQ9oxuxts/SkPeqZtC25svRgAXwVOlclk6CFvSx5t1WFSKj23iMqQjxWU/sMXjQP97UseGrSlriTFlTRuSqO4P40sA91AMoEW37gMRUhofaf3KwiTL8eIGvY6gCb1CNtk9rk4FjesSzwOpqsLhNstw9Q0JyoRNp3YpOKMP2rqf3AcquoONA8ARPSpy2oWusa3fBO4HlgJ9H4dxGRcdnMThVh+ldTq819ddjXO+m7ZZPeNh6SGnK3NuBV4BgaWCsTpBxIBerRSZrj/XmOFfQkYRrlgR1AkwdBe3bh05P+mT7pQdVWV++hcXR4VbUV0PWzMiGqUjqel0QHujWdbZqdAHvWsLZcbcOUfGOYkj/p6zINhcCCDcCLQIdWVTIRalyt6Ul0WEE1nQaAVvBljk/ZpXdT9pXUCXvNWAq0oYG1MgFmhmUqQgId7VNf1jRxohmuz7mzK5dpnLL91ykLqmxtowf5oZ3A08O/rFZVMr4VFTNVhATqHTygIkyPHmAtBL8PgtSUnrie0k3+fEVlgcBeA15D7eoyTlXBDBUhgdp7P1ARpl4B+BCC5y2o3JOtXTylC40pDarW+xe7R8+ongG2oXZ1GYeKdI2KkEBHezSMdhp0AWvMbHV2weNT/uhmytumWhc05DFrA1YAun5WxuzCijkqQhJXVAMfqghTKw/sMHjGPT8ts6umq7/3OLAcWIfurJIxuqh6roqQQEdSutl3CjnQYfB8iqAll2malt6CaQmqXG1DGIS8C/wWzQGUMZpd+WkVIYFOuJ4YTKE+YFXg4RIPB6dtZP20nZhsWdjY42YvA78HTur9IKNVVXaJipAw+dDp1T1UU1Zuol6ChpSnPmhe+My0FX5aj/aHQbDfzBYB76KJFTJKl9WUqwgJ0zNUUBGmhhM1vr2A21v9Nr3L2GkNqnUPLA7zkAWWAIfR2SpRUMlZdA1o22+K9AM5sKV5qzjWVtc4rZ/N0z4srRwbNLNn0dkqGaU5CqrkBdWgVlRToADsBnsmHYbvrc88Oe09BNMeVM219V4I7YBj9cBmtAUo52FGEFCta+gTGFRaUU2BE8ArHgSvrl3YFIuu7FiMn26rq8/j5IClwCG0BSjncFPhchUhgXRP5qQbBDaAN6aGeg7F5YeKzT0Jhp9wt2XAW2gLUM5h7qxbVASRieXAXszqzW19yzeXxuZrQWyCKlfX6IV05XawRnRvlZzDvAu/oCIk8ZNUremT6RiwzDxclq1rjNUNF7G6eW79A0/kC9gqognr2gKUM7qk+koVIaFf+WVS9AFvGbbISHfE7YeL3RWp6zL1J9yCZ4guWdSsFPlE115UrSIkckWlGkyC4YO9ttgttaUlszh2rZWxvMu7r6JmD/BroAVdsiinqTBj3gWVKoTIxCxSDwPPh9jvcrWLYjl7NZZBteXrvwwJytZD6jfATqK+fhEAbvSLSAWmQiT0U1UmVDfYGizd1Jap74jrDxnE9Qfrn/Xlfg/KXwGWEY3y0HtUALjqgttVhISqSgcqwsQZAjaBPdV+/X9+L84/aGxf9U33/FsfGuxuJ2qsUMu6/ItrL/qKipBQM8p1yHsCF6d7gHoCVu2+5guxXgjE+uvJhm8tCc0LW8AWEbWs61i6cN3FOuyb3KBKqwgToxNY7tjSMB/Gvg8g9uvobN2SwVTovwMaiO6u0hZgglWbcfOlM1SIhKrR2KyJ0AOsARYFXjjYtrAx9p+pRbHh27yw8aRb0AA8BxzV+yy57kzdQFqNFMkNKm39jdfwiCSeDNw3ZeueLopLa4vnyWQYHsZ5gmjKus5XJdSNl92nIiRYWWBUmb6ojFEBeB+oN3xVS11T0Rz9KZqgaq1rdIytwONADp2vSqT5s25SERLuAlPn3xi1A89iqeeymaaiulW9qF7xXKYx787bwCJgOzpflSgG3Hb5BSpEwl0eXqgijN5JYCXYU7naxQeK7Ycvuq8mrXWNPea+jOhW4AOouSIxPu8XMatSXV9JN6fyGhVhdPqBN8F+FQS+oxh/gaJcQ2frmjrcbDHRPMBjeh8mw11X/JmKIFxWo6AahTywCXgCfH3LgsawGH+Jot3sba1teB/4FVGbpQ4DJ2FFNec2FUG4pHqeinB+QmA30GTw+1ymsb9Yf5GifiqZqqpeNxxWaq4ocRemAm6/Qs+nBKrKdcXLeRgZNvss7s9kM42dxfzLFHVQNd/3eMEttWo4rDajyRUl697q+3R+SgC4YkaFinBux4AXwJ7I1TV9WOy/TNH3ebbWLu7BfSXRtSCatF6ibrpsoYogw0FVriKcXRfwssPPSVdsL4VfqCQOJOTqmo7hvgSNWSpJAc6/mjdbhRAA5tRUEOiP+Jn0Am+485g7m3P3PxmWxmdAicjVNR0y+A2wFDiisCoddwfXcHFVmQohAFSmAz5LjQrxcQNAG/ArM7JtdY0l8yikpI54ZzONH2DBP4OtQG3rJeOeeY+oCPIR11arA/Q0Q8C7wBOYvZbLNJZUc1npzSIZKGwx+AXwOzQTsOilMe79zGdVCPmI+bNuVRH+IAR2O/YU2PO52oaS+9wruaDKfacpDPB3hsPqLaI9WylSXy27mTk1enguH3Vxjb68DHOi5/KNgVl9LtPQWYq/ZElOd2zONA6GFrwF/BOQJRohIkXorrn/RkWQj7nuIj2jGg6p/UCTuf8qTdBeqr9oyY4hbq2t7wdeHl5Z6UBwEao24/6rL1Yh5GPmz6oklexjdU406/Rpx34xkKrc+3btopJtICvpefm5TGMv8ALwGLCO6NIwKRL3z/wGM3RRnnyC8lTATWFiJ5U4cAh4xrBf2eDgBxsW/Lqku5xL/mKXbKaxF7flYI8B7xB1x0gRuGfut1UEOaMbZn8tqb/60egLuP2yIlW1Lfed34al/gsn4gayXF1DF7AM+CXRqCWFVcxdHpTx1bmzVAg5o6tmfTWJv3YnsAL4WQhb33jg8TAJv3RirsrMZRqO4/4s0Q3BW9FcwFj78yv+lpRm+8lZ/NGci5IZUu7/F9jUlmkIk/KLJ+pO51xdU6d5+DTRXMBtaC5gLFWYUXudzsnI2V17UTUzk/FlxodD6iWDn6Ww9blMY6Im7wRJe3Nn654+gvtiMK2sYmrhBQs0MknOKWXG3WWJ+EJzDHjR4DGCoK25rjFM2msdJPENnqtrOjw8F/CfgC3omVWsZK77joog5+XGy+4r9V+xE1hp2E8p5JuzC+oT+VkVJPUNns00tJt7PfgviK5qVut6DHwluJabL52hQsh5mT+rZK+ld6ADeN7hJ1jQkv3mM4nd/QmS/CbP1jUddQsagZ8D69Gh4Gn3jWv/g4og5+2WOTNJU3LPqUZu5/2twU8M1mdrF4dJfp2DpL/RW2sbjpkFTUSHgtsUVtPnM1bBn2gShYzCzPIUdwVXldKvFBJNnFhi8NOUsyVpjRMKqjOtrGrrTwYEzwL/B1iLZgNOiwc/83dqSZdRu/1T3yqlldR+oNHhsXwqtWVtAhsnFFRn0ZKp7zJYYdg/Am+iqetTaq6VsfD6q1UIGbXPXXZjqayk9gL1YD8bKNh76x5YrJBSUH3CyirT2BMG9grwj8DvgRPopuAp8fD8v6cipbejjN7n58zgwuJ+7wwBu4Anzf2nHqQ/2PTNBn3uKKjOrHVBfV8FqZeB/000qqRdYTW5rrEqvn39PBVCxiRlxn3VXy/WH38A2Iz7zy30n+HhvtYFv9HnzWnSKsHHvZlZnOfxv1t955ydXUSH7RYCn1awT47vzv8fpPVsSsbhukvroOvVYvuxe4kauJ4MzJa21DV26pXUimp0/uq/ey7T2EbUYPEUsBNNsZhwn6Wab19/uQoh4/LVubOKrUm9G1gN/ITAlrRkFFIKqnHwsmAnzs+JplhsRVMsJnY1dfWPtJqScbusppxbmVMUHylEuzQrgP+J+8rcgoYuvYJnp0+I8/TFZQ/ODgP7M+CvgFuAKlVl/OZbBWWuyxFHvG+9FPSEolSFRAd5lxENGdiUyzRql0ZBNbHufPEvqgkH64bD6m7gAtVQRM7DELAbeM7hiUHYvjGjM1IKqkly68pHytMefgX4IfDHwBy0hSoiZ9YPbABrMA+XZuuaPlRJRkd7LqN0aPGmwty/vH0vYWE70X7zFcMrK4WViJzupEVNE/8vIFiarWs8rJIoqKbE/kUbwisfvrEDS20xpxfjMmA2oEuURORUi8H+0czeyGYaulWOsdHW3zjdvfKh6oIHC8D/GvxuYJbqKiIAjt1YFpRtX7vgKT2PUlBNr9tW/bd0umfb3U7hh8D9RNuBWq2KJFwu06jP2Amg5yoTYN29/zXvYX4t2D8AjwPvoYsYRUQUVLH65rSwqRBWzNxm7j/F/R+IJrCLiMg4aVk6Ce5c/mClWXCH4/8a+BPgcjRXUaTUONAFbAIaHFtq+MGczkcpqIomrFY+EuDhPOB7wIPA9UC1ai5SEvLAIWAV8FQ6P/hGT+UFAxvvf1JzRRRURRhYK34wG/JfB38Y+DJwKdpyFSlmvUTPoZ8z96ezdU3bVRIFVdG77aVHy9L5/E1u9jDRlSHXABWqjEhRceAo0fPnxYa9ns00HFVZFFQl42tLvm09NVVzcP+GwfeBLwIztboSKQqDwB7gecMWu4dbc3VN/SqLgqrk3LHiIQutrDLt+VscfxR4gOhCxgq9FiKxFAIngI0OiwLCFwIrP9pcu6ig0iioSt5dKx+53D1cSNRscQtwETokLBIn/cCHwKvg9easy9Y1DagsCqpEufvFh8sLzq24f5eojf2zRJ2BIjJ9CkAnsA5YgtlL3an0ga33/0YdfQqqZLrjpUeNQnipwdfAHwS+Alyi1ZXIlHOgD9gBrMTsecM2Z2vre1QaBZUAd614pBIKVzv2XeBPT1ld6TUSmXx5oANY7dBg8Lanyztb739Kz6IUVHKqL674XpD3VE0K/5IbPwC+ClyGmi1EJksBOAnsMHge92cIUh/kwzC/rq5RW30KKjmTu5c/nAoDm+ce1gLfAv4IuBjddyUyUZzo4O4eYBVmTUA2KBT6WxY+rYBSUMl5ra5e+r750EClB+mbgDrw+4Ebic5e6fmVyNgNEY0/agGeA3udgEO5BQ0KKAWVjMWdKx41PD/b4BY3W0h039VVQJWqIzIqeaJtvo1EA2RfSYXhB2sXPq2DuwoqmZAV1gt/nvYguNgt+DL4Q0RzAy8h2g7U6yhyZiHQA2wHW4rZCtx2FoKynnULntSkcwWVTKS7XvieeSpIu9kV5tSBfxe4GZitwBL5mALRc6j9wGqgCazNLOjO1i5WQCmoZDLdseI75mXzyoKhjhug8E2i7cDrhwNL916JVlDReai9QBZY7marA/eOrO6KUlDJ1LpzxV8Y3j8TCz4P9gD4Hw8H1gwFliTQyIHdA0Az+EqwN1I1NQfzPd1ha6ZJzRIKKpm+wHowMFKzwW9y+Ab4AqIDwzNQh6AkI6D6gSPAW+DLzGkJwvBAoaxsMLegXgGloJI4uGvlo2ZeSAEzHbvB8ZEtwc8AFwwHll5vKSUhMEA0UWKtuS9xo9ncOzAGshmdh1JQSSzdveIhcycopNJV5oWbcf9T4L7hwLoQNV1I8csTNUkcBDaBveDY6+bhESwcyimgFFRSTKushwPHavDw88ACooG31xE1XWgskxSbIaAb+ABoBV7G/W0s1e5Y2JpZrIBSUEmxunPFQ4GF4Uw3u97NvhRNaudWojmClXofSMwNAl1g28DXuLMKs/UBftTdw1ydmiQUVFI6K6zlDwYFC6oNv9KwO4AHwO8B5hBNulDjhcSFA4MWTZLYgPtKt+AtYJd7eMKDVKGtVk0SCiopWXeseDgwKHcLZpuHNxM1XtwLXMkfWtsDVUqmIZwKRC3mncBm4AVgtbnvd7M+LAhzCigFlSQosFZ+3ywspNyCGrxwgxm1RKOZriYaz1Q5HFp6n8hkComePx0nmiLRBrxsRrNbqoNCYShXp4O6CipRaC1/KJUyK3fs045/GfgS+OeB+UTdguVaZckEGyRqLz8MbAWaDVvl+LtAtwVWyGqiuSio5HRfXPFIUEilU4T5WeZ+I3BbtMryW4FLiZ5l6V4sGc/qaQDoAt4FmoF1RG3m+wz6spkG3aorCio5jxXWi48a7gFOlVlwGXAtXvgyxr24X0d0iLhieJWl95GciQ//NUR09qkdyEHqd8B6KOx1ty4zz+c0h08UVDJWd774lwFeSOGFasMvdfgC8ABwB1GL+0hoafqFjIRTSHQwtwc4jtm77rzq+JuG7TNLd5mlBr0wEObqtL0nCiqZqMBa8bCZh+ZYyoxKzOa68xWiZ1o3Ap8CZhFtDapzMHkKwyunLqK5e3ujVZO9jtkmh+PuPmQQtmYUTqKgkilw18pHAsfTODPAPzu8wrqZaIL71cDFRE0YZQqtkl055YmaIvqIOva2Y7YJ91bDN2F21N2GLEgVsgsWKZxEQSXTtNJa+YjhYeBBkDaYgfs8nGuBzwG3g19P1O5eMRxcOlhc3OE0RNQQ0QPsBN4BNhnscrf33Wg3vN/wQlZXa4iCSmIXWi//wKyQD0IsjVNj+EXglxt+s8PdYF8ArgCqh4Pr1HNaej/GL5RGnjcNEl2l0QVsM8g5tILtAtrBT5gzBBZm6xrUFCEKKikOd6x81MxDM8IgCiWrcrNZuN9g7ve42R1EU91nAjVEB4xT/KGTUO/PqQ+mkD+0kPcQDYHtBLaa04xZzo0D5t4D1k+09Rdm9cxJFFRSCu5a+bCFmOFhKsDLwGrA5+Pc4mafA64h6iK8mGjC+8j8wVPDSyZOSNQAURgOnK7hUGoH3sd9E9GW3naM47gNmlnejZDQydY1KpxEQSWl7e6VD5q7B+6WBtLmPiM0m+9wNWZXGTYPfC7waaLBudVEW4XpU8JLzn+1NBJII38dB9sHvg9sr8GHjn/g2C7DD+PeD+QDDwstC5colERBJXLPc9+1fFk65RAQBGVGUIOHlxp+mWOXg88HvxbsquHwuog/tMKfHl5JfG/7KX8fCaORcOoF9oHvBNtlsMfhMNgRj1ZQRwMYdCg4FFozes4kCiqRc7rzpR8YYT4wd3MsBV4FXoMFNRDMcJhjnr8G7GrMrsH9M8PhZzgXGQAAAaNJREFUVT4cXKeHmH3Ce78Y/gz4GcLIT1shDQ3//STwQdSF5++b2fse3YbbBd4N1h0Q9Dmed/DQCNtqFUyioBIZf3CteMgMxy1lkDbHU+aDZbiVE1hZFFB2oYXhlW7MA+a6M8/sX1ZflcMhdupfpx5ONj7axPFJYWbj+PPjZ/nPfoYgGjolhAZP+Wuk2eGQOXsx2+P4Xoc9mB02p9fwQXcfMrMhhwJ4aO64pTyn5gdRUIlMYYAtf8gIAtzAMLNCIeUWNWG4E2CWxoOqwPyS0P1SzC81s0sJw4vdgtmGXwg2E7zyDGFWftrKbOTvqdPC7fQ/T+EpoTPSuHDqdtypATR0SgANELWC9wHHcU5gdAIdhrU7tAdwxPHjDvnAKbhZwfGCu4WetkIQgnlINqOGB1FQiRSFW5f90MpSQ0EYhgHmgZkFhGHgFpgRBGZVKfOeGocZjlVBWI17FUalE1QZfuoKbCS4Kk75M3RqcI2E1NApQVU4JZCGgCHHBgwfMPc+N+sD6zOjD7ceC/M9YRD0AyGOY1HbuBGEDmEawrWZem3XSSL8fwXPKrTiSD1RAAAAAElFTkSuQmCC;fontSize=20;labelBorderColor=default;" parent="1" vertex="1">
          <mxGeometry x="878" y="16" width="96" height="96" as="geometry" />
        </mxCell>
        <mxCell id="UMffj6f-WVmhNxOPsVtC-8" value="" style="endArrow=classic;startArrow=classic;html=1;rounded=0;entryX=0;entryY=0.5;entryDx=0;entryDy=0;fontSize=20;" parent="1" target="UMffj6f-WVmhNxOPsVtC-7" edge="1">
          <mxGeometry width="50" height="50" relative="1" as="geometry">
            <mxPoint x="626.5799999999999" y="64.75899204913549" as="sourcePoint" />
            <mxPoint x="802" y="202" as="targetPoint" />
          </mxGeometry>
        </mxCell>
        <mxCell id="UMffj6f-WVmhNxOPsVtC-12" value="Exchange&amp;nbsp;&amp;nbsp;&lt;span style=&quot;background-color: initial; font-size: 20px;&quot;&gt;messages&lt;/span&gt;&lt;div style=&quot;font-size: 20px;&quot;&gt;via&amp;nbsp;&lt;span style=&quot;background-color: initial; font-size: 20px;&quot;&gt;WebSocket&lt;/span&gt;&lt;/div&gt;" style="sketch=0;outlineConnect=0;fontColor=#232F3E;gradientColor=none;strokeColor=#232F3E;fillColor=#ffffff;dashed=0;verticalLabelPosition=bottom;verticalAlign=top;align=center;html=1;fontSize=20;fontStyle=0;aspect=fixed;shape=mxgraph.aws4.resourceIcon;resIcon=mxgraph.aws4.http_protocol;" parent="1" vertex="1">
          <mxGeometry x="691" y="32" width="60" height="60" as="geometry" />
        </mxCell>
        <mxCell id="71EcnhhfjaReExA0ttNN-5" style="edgeStyle=orthogonalEdgeStyle;rounded=0;orthogonalLoop=1;jettySize=auto;html=1;entryX=0;entryY=0.5;entryDx=0;entryDy=0;fontSize=20;" edge="1" parent="1" source="71EcnhhfjaReExA0ttNN-2" target="71EcnhhfjaReExA0ttNN-4">
          <mxGeometry relative="1" as="geometry" />
        </mxCell>
        <mxCell id="71EcnhhfjaReExA0ttNN-2" value="OPLA-Tool Frontend" style="shape=image;html=1;verticalAlign=top;verticalLabelPosition=bottom;labelBackgroundColor=#ffffff;imageAspect=0;aspect=fixed;image=https://cdn4.iconfinder.com/data/icons/essentials-74/24/004_-_Website-128.png;fontSize=20;" vertex="1" parent="1">
          <mxGeometry x="266" y="17" width="94" height="94" as="geometry" />
        </mxCell>
        <mxCell id="71EcnhhfjaReExA0ttNN-4" value="Backend" style="shape=image;verticalLabelPosition=bottom;labelBackgroundColor=default;verticalAlign=top;aspect=fixed;imageAspect=0;image=data:image/png,iVBORw0KGgoAAAANSUhEUgAAA9AAAACyCAYAAACqeickAAAACXBIWXMAACE3AAAhNwEzWJ96AAAgAElEQVR4nO3dC3BkVZ348dPD7EDzyihiwZaaKANbipiMLqBtLRPWVUtEJxb6t7ACk5HFKtFieszCykMmw0tdbOkRWRcQJrGyPkAg4wtFcRLUWK6rJLjlusOUJPhAATFhgOAg9L/Ond/N3Onp2+nH7f6de+/3U9WVyavv7Zszt8/v/M75nUypVDIAAABJks2P0sFx1+aFYv9Q2i8CgObIfX7eGDNljJmRh/333EKxf7xVl3c5fzcAAAAAQAx1GGPWyGNRNj9qWhVcE0ADAAAAAJKmJcE1ATQAAAAAIE0aDq4JoAEAAAAA2KNacD2xjIsEAAAAAMDSCKABAAAAAKgBATQAAAAAADVI/RroTK7QZYzpCnypxxizMuTHe0O+7i0sr+V7pcnBlu1JhmSp0DaNfF7+tUr8ogdBM6XJwfKvAYihTK6wUt6vfNXeu2oVfH/ifgEAQAWJDqAzuYIf8JZ/tAFIZ4SHWlPDz/jn5P/Tr+5mAkH24sfS5GBYQI6YC3R8/WA42BHukcIFLbFE+/ODbjrOVWRyhYHAIIYXcDAwhqjJ+9fKQGDs3yNqfr9pwKbgrwTuF9Nyj5gre7/iXgEASJ3YB9CBYMQPSHpaHYREpCPQEdqvQyQdl4my8ulTdFbiI9A2ewPBcis7v/Wotf35HWXa315dgUDD+xgINCbk43jg41xpcnCq8lMh7TK5Qk/gfcvV96/uwL/XBr9R4b1qnEFgAECSZUqlUmxeXllA0tuCTHJcTASCmnGCGjdIxqg30AlOYtv0M9fjgfaXqo5yJlcYKs/U1Wi+0mwTAuz0kGUZPYH7hCsDaq0wG7xXaMzSyOZH49PBSZ/NC8X+obRfBADNUbrPTzgdQEtnIxiUdNfwa2k0L52UcQlo6Iy3QSBg7k14R3gp02XtL9EBdRMB9FLKA2ym1MecDPra+0OffEzjgG+QHfwdS+v7VDY/atvAdoVDTywU+8NquABAbGkF0M5N4c7kCn2BoISAuTYdMq3Om1qXyRXm/U6K/chUumhIZ7gv0Bl2fZlAu3TLY4PZc538TvIYgV9dgtPqK02TtRm9PgbI3CYDv/59Is0Da5Ws8a9JJleYDbxHjTl3pgAAhFAPoAlKWsJew3Xy2JrJFWyGcJiApn5l7XNt1M+fUH4n+VrpJNvOcZG217TOCKosowXkPjEgDwZ+a9Ppv08FBn0JpgEAzlMLoKWSLUFJe9gO3bUS0PjB9DCZ6XAyPdtvowzqNK5TMtMbaHtIGpkxNcD7WNM6yoLpYQbdAACuamsALVPb8tLhICjREQymt0kww4j/vtnmIdYqtkSw7Y1IB5npyIgVuU/472PcJ6LXERh0m5D3qOGkvUgAQHy1JYCWbPMA68Gc462blmm2xbRmBgMd4jwDO23jZ5tsB3mIfZThOu4TKrzlIFK4b4hAGgDggpYG0BI4k81zX6dkBocyuUJRMoOJD6TpEDvBdpC3E0jDVdwnnNAp9TwIpAEA6loSQMc8cPa3kjFSIdQ3F/h6uZ6y4j7+dhE9Metwdcj2PPmkB9LSRosx+/vMyrZGtYhb2wsG0nmmdsMFmVwhL+9l3CfcEAykBxhwAwBoiDSAlsJLwzEJnGclIPYfM0102qu+iWdyBdtJ6ZLOiv9w+RrtE0iXJgeHHDinSMjfoujYcgK/w+vvAezv/2ua7SBK9sxvf12BPdVd7TTbv8t9mVxhi2SaKDaGtpP3sqJjFbXL7xP+xzTeJzplwG2bDLhRbAwA0DaZUqn5/aelOFjR8Uqk/p6T3kP7DVeuWW/g4XJAPZuE0X7JWmxSPAV/dsO4HyRrXVMZSAi2Pxc7yvPS7pwqcqfcjk4l69ZaMvtmg+IplN8nprRmZMToPmEH24oOnEtV2fyovYbbFQ49sVDs763h5wAgVrL50eYD2fpNNB1AOz7Fzd82Z9z1KaESUPc5vo9oLLOCcm3HFK5rcNBGrRNcC9mOp8/RbbucancE0MnEfWJpjt8ntsmAm7PvTwTQABCt2AXQMuVrzMHK2rNyXrHdQ1I6cgOObpNir29fXNaoylTMsTZ29ibkeM4P2lTi8FZe09Lu1P9PE0AnjwSGwwr3ibE4vk85fJ9w+v2JABoAohWrAFqmdY07NgKdyP0iHd4CbL3r11qu3dY2HW5E1uIlZs2uDD4MOdT27FTNXu3OMQF0snCfaI4MPuQdu0/0ufj/hAAaAKKlFUAvq/c3pLPhUvA8IZ3K3iRubWFfk31t9jXKa3WFrYTq7PVuc6fYyHrmRBW8sh1QaXvvksyONnvPGZcOO9A07hPNszUK5D6x3qH7xHb52wIAELm6AuhAZ8OF4Hk2EDgnPiMTCGZOdaSTYq1zMYhW6BQnmnSQ7bKCzQ68TnvvuVOy40DDuE9ESwawexy5TxgZ5CWIBgBEruYA2rHOxmbboU/jVEYJpF0JZoxrQTSd4taR7cxWOzKAMyZLSYC6cZ9oDZtdd+w+sZX7BAAgajUF0A51NmwhodVJ2pe4UYFOyrQDp+NEEC3F1+gUt5CsP+6Rirea/OncK5N4ndE63Cdaz6H7hOE+AQCI2pIBtIzeutDZGHGhgJBL5Fr0yrXRtk62NNPUlfY20Q6SZepzoN11SCVjoB7cJ9qA+wQAIKmqBtCBraq0bSxNDjq9v6MW6aTYGQIbHTida1mbmh7S7rQ7x2scGLgBEIL7BAAgaZbKQA87sMej3S6pqHwOzpNrtN6B8xxmulx6ONI5HqLNAe7iPgEASJLQAFoyiWuVX6vzew27RK6VdhDdKXuCIiWkc6y5xVoHbQ5wG/cJAEBSVMtAaxfq2kLwXD+5ZtoVujdJoR6kh13rOK/4avNklwDncZ8AAMRexQBass9rFF/cRGlykJHiBkmFbs2RfsNIf7pIfQLNPVc7pHMOwFHcJwAASRCWgdYMfuZ5g4uE9kj/ACP96VKaHBxTHrhh0AZwnAP3Cc0AHgCQAPsF0BL0aK59HqLadvPkGmoGFIz0p5Nm57SbQRsgFjTfm9ZwnwAANKNSBloz6Jml4nZ0ZD30rOIpsKVVypQmB2eMMdsUXzVtDnBcaXJwSjkLzX0CANCwSgG05huLduGyJNK8pmSg00mz+B8dYyAeNAfLuU8AABrmUgA9S9Xt6ClnoTuoxp0+ssZRa/19T5qvPRAXyvcJAmgAQMP2CaBlXVCn0uUcUzpuGmheWwKadNJqc5q7BwCoj9Z9gnoJAICGlWegNYMdAujW0czsE0Cn07jWq5Zt+AC4b0rxDHlvAgA0pDyAVut4liYH1TrcSScFW5gqh3aiYwxgKZr3Cd6bAAANKQ+gtdaralbjTAutjgrT5FJIBm20EEADMaA8cM59AgDQEFcC6Bml46aJVkDTnc7LDWPMtNJFoHAdEB/cJwAAsVIeQGsV4CGAbj21a5zJFRjpT6c5pVdNITEgPrTuEwzuAgAashhAa1ak3P7Z/7fJzubi0bKHUV5rxjTudNIsJEZ2CYgHzfsEg7sAgLoFM9C8kSSbZpaftpVOWpklw/RMIDa4TwAAYiUYQKtlCXtf+9J4XbUYKk0OagbQZKDTiQq7AJZCwUEAQKyQgU6XWaVXS9tKJ83MEoM2QDxwnwAAxMpy7ZPtXnVkvK5Yi+zevbvqEy9fvtwsW1Ze861uNgvdqfDy6KSkkN3KKpMraL1wBm2AGOA+AW3Z/OjKsrZQ/vlS5spmUswtFPs1Z1ZASQRtaaZsyeXMQrGfQssOCgbQKlMeVx52oKvXpm1+9atfmXPPPdcceGDla/Gyl73MXHfddeaQQw5p9pS0RvoJoNFutDkAS+E+kQLZ/GhvIJAJBjQt27Ehmx/1/zkrAZEfZPsfpxaK/ZqzL9CAkLa0spVV/QNtaVraz0zZg7akQD0DvfLQg7RPQdVzzz1nNm/ebH74wx+GnsbIyEgUwbORm/ZahdfLdiHpNaG0rRRtDogP7hNoWjY/2iUBTfChMesuqDNwDvv0vyQwmpC+mR8IqVWlx15lbalXCg5qtyX/frXfvTKbH533B2YCAzTMgmihYACtUo2y57h0T+G+5557zJe//OXQ73d3d5uzzz67recEAADgsmx+1A9ueo0bwXIj1gQDorKg2gbT42QXW08yy72BgLkjZi+ho0pbGvfbE20pOsEAOo43nti7/vrrq76ECy64IMqXqDYaZffbtGvdtI4PNTNKmSXaHIAlcZ+ID8kK2uCmL6ZBTq38QGiD2fO6pyUIGiNDHQ1pS32BAZiktyVPNj86EWhL3Pea4MAU7vSugX7ggQfM1772tdDvr1q1ypx++ulRHpJqp2g3tk8DsJRxrYE27hNuCwQ6Aymect8tjw0yVXdMAqAxB84tNmTGwoAEzGltS35AvSmbH50NBNO0pTp5AbQdgdU6gZ5jX6x1aFV27fMll1xS9RQuu+wy09GR1EExAACAfUkl44GUB81hbKdwnX0EgulhMtOVMQBTVWdZWxqWtkRmugZ+BpoR2Da76667zG233RZ60Pe///3mrLPOivqkNP9TqKyxR6r1yugqAIThvckRsg51QDr1WFowmLbZxKIEQKlf55rNj/pBs0bh3DjqkCUDG2TJQFEy06lvS2Ga3lgY9XvyySfNxo0bQ3/vne98p/nc5z4X+ZUtTQ5q/kegk5JOBLAAlsJ7U4pl86MD2fyoHeDfTvDcMJtNvNYum8rmR4cl85o60pbs0rE7CZ4bZjP1W6UtDaW1LS3Fz0DrTeE+Ln1TuM855xyzc+fO0O9fdNFFZsWKFW09JwAAlDBlMIVssGOMGaKIbaSCWekRe30Xiv2atUhaTqb85+XBusfo2Gu5SdZLp6It1cPPQKtN4U5bEbGJiQlz9913h37/xBNPNK95zWtaeQrzrXxyAACAMHZ6rWQJtxI8t5QNpB9MckZaBmGmJNAjeG4dvy0VZcAi9ZjC3UbPPPOMGRwcNHNz4bPVbGGxgw8+uJUnpTXS36t0XKQX044AwBG2CnI2Pzou02sJnNvHBj9TMh03EcGPXS8v0/4ZhGmvDTK1O5+mF12J+jZWaXLzzTebn/3sZ6Gv+MwzzzTveMc70n6ZgKgQQANYCoO7bWCDN8kSxsl8DUkHre3X6uVPx7VrhAfiWrVbBgCG/D2yYyRpbelayf4PpLVqtx9Aq7yBdK86UuOwam655Zaqhz7vvPPMsmVMCgAAAPEne+8OO76F0LQENzNS+HKm3rWe8jpXSn+6Rx4uZkbtOW3P5ke3yJrW2FRZlirtw45nnP225D8abUtd0ob89uTi9HT7f/q+bH5080Kxf8iB82kr1Qz0ysPSs/75u9/9rvnFL34R+v0LL7zQnHTSSW09J6DVSpOD45lcgesMoBoK0ySQTPO81sFX5u+fPB7VVj2BLNxiZlfWHffKPsSuVYS2GdxeyUY7n0F0eAbDrN+O7McI29KUPKdHgupeebjWljbJtmF9aSoyxhTuNti9e7dXWfvZZ5+teLA1a9aYT37yk+06nXGlaSJqld4BAO4qTQ7OMNCWLLZwlYNbUo1IwDxWw882TYIJex2GZeqxvzexK1N1bQZx3A50LBT7hx04n/3IdRtzbHqzPwAz3K6p8IGguhhoS3mHZnZ0yzr73rRM6SaAbrGnn37anHrqqaFrnw899FDzmc98JkGvOBTVEQEASDDp3I871LG3wU7RPjSnK8ux/WC6S9bxujDAYPtmW+3fbaHYX3TgfBY52JZmpS0NO9SWeiSQdqUt2Snd610dkImSv+CWYjt1ev75582vfvWrJX/puuuuM//1X/8V+v2BgQFzwgknqL0OAACAZjkW8NjAebPt39r1mS6t9bWZ6YViv81Ev1yy4i64VmYNOEECwxlH2pINnG1QaNuS6kBMOZvtdbAtbZUCY4nmB9AqC/K7jo5vUvLBBx80p5xyStWfefLJJ83wcPX70Qc/+EGTyWQiPjsAAID2cCx43uJi4FyuLJCecOCU1rkQREvwPO7IzEU7CNPjekY10JZOlUJm2hIfRKuWfO46+nDNwzflhhtuMI8++qi5+OKLvTXOlWzbtq1qltpO7X7Vq17l/osFGpTJFZjdAgAJ5lDwbDOFpy4U+/Nxqi4twY8tDrVRMueabBCtNpVb2tKwA8GzDUJXuz4IU86uyV4o9vdI4K8t0UE0eyY1YMeOHeaaa67xfvHjH/+4ufXWW/d7kl27dpkLLrgg9MkPP/xwc/3115vnnnvOy1TX+iiVSs2evtrifoKpVOJvDgDJVnQgeB6RTGEs9zc2e4KfohRc1c4gblAMfFwYiNlig9A4F8OSbaVWy6CSpq2y/VjiEEDXyQa8l1566T6/dMkll5i5uX0HqIrFonn44YdDn/wDH/iAeeUrX2k+9alPmSOOOMIcffTRVR9HHXWUOe2008z8fNODk5ojaQRTAAAkhGxVpV3AaKOdvhqnTGEYqdzd68B61q0ylbptJPOtHTzbtc555XOIhAwAuDAgMyaF8xKFALpOMzMz5rbbbtvnlx566KF9stA2mP7CF75Q9YnXr1/vffzEJz7hTQFfKgP91FNPecE7gJrFNhMBAK6TAEt7n+f1rlWPbpYdCJD1rNpB9JhMqW45yVJuUHyt8zJlO1HVo6Ut9Si3pQ6Zlp8oyzK5Avvz1iFsy6lbbrnFPPPMM96/77zzTrNz587QJ92yZYu39vkrX/nKfplrAACAGNDuFCd6uxwHguhO2W6rpQLrnrXY4DnR+xc70JbWyGyVxLAZ6LaMLiWBLQoWFkD/5Cc/MT/+8Y+9f1955ZWhr3bt2rXmwx/+sJdNtmugAQAA4kTWyGpOt03FXrMOBD4b2jCVO6+1G5DoS3Lw7JO2pDmde6hdMxragSncNfrRj35k+vv7Q3/4xBNPNCeffLL37w0bwmeh2CDcTvc+4IADFqdxAwnGAB0AJE/LM5NVbElD8ByQVw58WjZFXgIqzczk+jgXnmtAr2JhsY5WtqV2Uw2ge1e/tK3He/75582///u/m8997nN1/Z7NFl900UXeWuQwtrDYwQcf7H33nHPOMT094QN2Z555pvnpT39qzj77bPN3f/d3zb0owG2aS0RmaBsAEC3JPmtlDCeSUuSpVlIcrU9xi6s1LayknFfcsmpbygZigm1Jy7qkFBRLTQbaBr/vete7zIc+9CFz3nnn1fW7Ntj9wQ9+EPr91772tebtb3/74ueHHHKIOf/886s+p53mbbPQH/vYx8xLX/pS84pXvKLq4+Uvf7k59NBDTSaTqevcgRQjgAaA6Glln20Amdh9ZauR6tyaWf9WXXetwZA0t6Up5X2iEzEAttyBc2gpux+zXZts92seH987S8OuQ7ZbSB100EFLHv7Tn/501e/b57LBcJBd62z3en7iiScq/s7k5KR58MEHzRlnnGFe//rX13QJVqxYYQ477LCmLldpcnA8kys09RxN6KUyMgAA8STrYbWyz0UJJFPJVhvP5kdt9nCNwuu3mcN8lFuFyUwGrexzpK8lbuw+0YozSQaSEEQnOgO9fft2c9JJJ5m3vvWt+wTPli3gtdRWU9bExIT5+te/Hvp9u5/ze9/7Xu/fpVJp8esvfOELvaA9zGOPPWYuuOACL4A/5phjanrYTPWyZSxbR6xobqBPBhoAoqWVtZu1nX7+lonKQmtNJZ5I29TtEFpBbIcMBMVaoqMxO/X5kUceCf3+pk2bzB/+8IfQ79tp3zbI9benKmeLht1www2La5/n7rjDPH777Ys/NTAwsFhYrJLbb7/dK04GIHqlyUECaACIltagKMHznsyhzQZtUzp81EEPbUnRQrF/TLGgGAG0yzo7O/dZm1zOBs//8R//Efr9q6++2lv/HMauX/bZAmVP3HKLefzd7zbPPvaY91UbWNuCYtUUi4kpSAdUolWFW6vYCgAkklRM1ti6ap6M4T60Oo6RTR2XpQAa07dnU1Z1eylagwmasxMjsUy5Sm7L5fN5c+SRR4Ye5s477zRPPfXUfl+/7777qk7Bfs1rXmN6e/f+/Z+6917z7Le+5f37z5///OLX7Rrn448/PvR5vve975kdO3aoXyegRbT2CU38no4A0GZa/UWC5wAJAFUyhxFW49YKoMhaBcjAlEbCoTPue0IvS/o+rbZC9n/+53+Gfv/+++83IyP77lG/e/dub3p3NZs3b/aqbVvP795t/hT4+Sc+/Wnzl9//3vu3XQttg+RVq1ZVfLa5uTlviywAkUptcRAAaBGtoIcAen9agWBUgygMxrhjTOlMYp3ATUVFqje/+c3mkksuCf2+nYptM86+r33ta1ULh51yyimmr2/v9P0/f+Ur5q/33rv3Bx591Dz64Q8vfnrUUUdVreR9xx13mMsvv9zbbxpIikyuoDlFhww0AERLo8M7K9vuYF9xD3o02tJEmitvV6HVlmI9jTs1JZ03btzoFRWr5PHHH/cy1TaAtQXDBgcHQ5/HrmvesmXL4ufP/PGPZj6wFnrx63Zq+M9/vvj5aaed5gXyYWzG2wbuQIJozm6hgBgAREsj6GG9agWynZfGNO6uiJ5HY3kXbakCKSamgQx0HBxxxBFeVewwn//85729nG1l7Iceeij052z2uadn79/8t8cea56frXwP+9PQ3rX59rk/9KEPVb1SN954o1eMDEgIzZsjATQAREtjz1iCnnAa16bpQmJSQEwDbSnchMIxCaDjYt26dRXP9J/+6Z/MWWed5a19Ll8PXe78889f/Mq8LRq2a1foz+6enDTPBIJrm4F+9atfHfrz3/72t83k5GSirjlSTTMDzZQ/AIhIhMWj6sVgaDiVaxNBAKwVONEvCKdxbTQG5CKTqgD6ZS97mbnyyivN4Ycfbl7wghd4jxe/+MXmE5/4hFmxYoX54he/aL773e+G/v5ll11m3va2t3n//uv8vHl8qeJff/qTeezCCxc/tdO/7bGqsWu1WQuNhNB6k5wvTQ6yzgkAohPV1N26sOVQVVrXptm2oNGW5ln/XJXWYExs10GnKoC27Prmn//8597+zvbxk5/8xLzuda8zv//9783FF18c+nsf+MAHvADa9/hNN5nn7r9/yeM9c+ut5g+Fgin99a/e5zYA/+xnPxv68/fee683jRxIAEaZASAZVIIe2k5VWtn5OGag6RdUp3V9YrsTVOoC6IMOOsgcc8wxi4+urj3vCZdeeql5+OGHQ39v/fr13jpm3xNV9ogu9+S//ItZ2LnT++qyZcu8tdDBddTl7FpoO50ciKtMrmBvih1Kp0/GAgCipZEpIuipQgqJaWh2MEUjaCL7XF1cB2PULHf1xGZnZ81HPvKRthxr165dVadu27XLJ5544uLnj3/xi7Z0d13H+PNnPmOy119vMpmM97ndOuuMM86o+LP33HOPufrqq81QoAgZEDOaN0U6XQAQLYIeN00rVLRuNoBuuhBZA+gXVGEHY7L5UY1DqywNiYKzAXRnZ6f553/+Z2/7J22bN29ezD7/ddcuM3fVVXWf0cItt5in1683h0ggfvrpp3sVve8N7h8dYI958sknL665BmKGPaABIDk0th3iXr40jUGGhoOebH40tlN2UyCOgzFqnJ7CbYPHCy64QPUc7HTr17/+9Yuf/+maa8zzv/xl/U/0l7+Yx/71XxfXQtuiZcViseqvfPSjH/Wy40AMaQXQtoAYVVsBICIEPU6LW/VktrByV6wGY7Q5m4H22Wnctjr27373u7Yf266PtoXF/GnXu/77v82uT32q4ed7dvt2M7dtm3mBTN1evXq1N407rGjY/fffb7Zu3brP1lmA62T9s8YULcObJBzXlckVYlt1FKlFQUh3qUxzz+ZHuxTXYKM1phT6brHdysr5APqoo47y9m+2a4Lb7bbbbjN/+7d/6x31Lw8/bB553/uMWVho6iyeuOkmc3hf3+KU8Msvv7xq1e0NGzYQQCNuBhTPlwAaLlsnD7ijO5MrtOW+sewFB65ccSzJ3DqwBnppmoXEGjk2+4m7i8GYOjgfQFsDAwNtD6Dt2uu///u/X/z82T/8wWT/4R+MedObmnvi3bvNs7/9rTmgc8+gy6pVq7yp6nfddVfor4yNjZm+vr7mjgu0T17xWhNAA6hH+2bMPFeK6x+GWRPu0go8YjUSRLa8JloDVo0OxqiKRQB97LHHettMffWrX23L8Q488MD91icfunq1OfTmmyM/ll0LbQcH/vd//9fbYquSkZERrxL4IYccEvnxgShlcoUBxSk5dv0zU/4AIAEWiv0MiLrLTusfa+DsYrttUQrQf6pDLAJo64orrvAeSWT3hH7wwQcT+dqQHrL2uXplvNZq5M0cAFAd884dZQcZlLYfapRGW5pVOCZq1xvH2YNOV+EGECt24/IOxRMeprkAQOTIGqJcnKonM327NlynOsQmA91uv/zlL83xxx9vVq5s/WDZ888/b7q7u71iYkceeaRrlwJYUiZXsIv0NyheqenS5CDT/QAgGcgauq3RAJrBGEfZdeIxm82gajlVDvf33HPPmaGhIe/rc3PtuTw/+MEPvHXXV111VVuOB0Qlkyv0OJD91SxcBgCIFtmw2k3bavIxOVfNWWpwUyyLFC5j0fj+vvnNb3pbWLWbLSb2P//zP05dC6AaWfc8pvymOEH2GQBaRmtff9RGIxEWp3XxDMYgcqyBLmOzzxs3blQ7/sUXX6x2bKAeEjyPK2+EP6+87zQAAGkTl4y3IYCuy3SMzlUVAXSZO+64w/z6179WO/7Xv/51c//996sdH6iFTNueceBNNF+aHOTNEQAAh2Xzo+wn7j6W9daIADpg9+7dZuvWrern8YUvfMErLAa4SPZ6HndgLdNIaXKQytsAkDwsL6wdg8iIs1guEaEKd8COHTvM3/zN35h3vvOdLT/Wk08+ab7//e9X/N51113nVeU+66yzIj9uJlfQHAFknWqMBfZ5XufAq7Drnpm6jbgZYbu1UNuVjjvbrr9J5qADuhy5f9YsmwpgSvgAABKUSURBVB/VWutKJqx2BNBAmxFAB7z61a8227Zta8uxnn76adPb22t++tOf7vc9mwk/++yzzSte8Qrzxje+sS3nA1Qj21QVldc7++wanT4HzgOo1wwF7yrL5Apah7Z/k6F2HEimsMYqgGbbIQDYn+oU7vH7fpOKP8kf//hHr7q2/7CfH3zwwebcc8+t+nt2WytAk52xkMkVbIf/TkeCZzvC1VuaHCQ7AQCAEtY0I83IQLfYAw88YI477rj9DvKb3/zGnHHGGV7V7ccee6ziSXzve9/zppVX+n2glWSq/5Bja1NGmLYNAADqwKyf2o2zbV1tKCLWQnZLrE2bNlU8wOWXX25e+MIXmiuuuCL0BObm5sxFF10Uu9eNeLJrnDO5Qj6TK8zIekSXbqLrCZ4BAACgbRnrsVrn7rvvNl/60pcqPv/IyIj58Y9/bAYGBqquc7bbaoUVGwOalckVumxV7UyuMGaM+bMx5lpHpmr77Hrn1VTbBgAg1pjyjcRgCneL2G2oNm7cGPrkpVLJHHDAAeaggw7ystFvetObQn/20ksv9aZz23XTQDNk/2b/0evAPs7VbG5XcR8AAACgFgTQLfKNb3zD/N///V/ok9uA+aSTTvL+/Y//+I9m/fr1oXtQ20z19PS0ecMb3hDFyWptSWHYaqF1ZIup8mqpPfL39j/GZV3LhDEmX5ocZB9QAAAAOIUAugXs2mc7Rbuac845Z5/v/tu//Zu3pZWt0l2JXSv9rW99K4qTVduSojQ5mOQAelMmV6i84B21svuxDjFdGwAAAK5SLSI28/ATiWwY3/72t721y2E++MEPmne/+937fPdFL3qRueqqq0J/56677jKXXXaZF5wDCTMrRcK6CJ4BAADgMj+Antc4x5mHVQ7bUvPz8yafz4ce4swzzzTXXXddxe+dfvrp5rTTTgv9XZuFvv32251+/UAdCJwBAAAQK34AzVrDiHzsYx8zO3fuDH2y8847zyseVsmyZcvM+973vqonctNNN3kFyoAY22aMOZXAGQCA1CDWQGKwD3SEdu3aZY488kjzkpe8pOKT2u2q/MJhYd773veaE044IfT7thr3vffe6+5FACqz2WZblv7lpcnBPrbPAwAgVeb4cyMpCKAjdNhhh3kZ6KmpKXPRRRft98RXXnmlWbFiRdUDLl++3FxzzTVVf8YeY/fu3Y2euNY+fBNKx4UeGzRvkX2cbba5mPBCcgAAwC1qxXORXKoB9NyuvyTywh5xxBHm6quvNjt27DDvec97vK/ZqtunnHJKTb//1re+1dx4442h3//hD39obr311sjOF4jQhGSa/aCZ7agAAEieuLy3a27fGjdaSbbY8bexGtfYI3Z656PxvnpLOPbYY82XvvQl8/GPf9ysXLnSW+Ncq3PPPdd85zvfCS0adskll3h7SR999NGuvFyk07TcP7xHaXKQKVoAkBzMGkJFC8V+3u+RWuwD3WK2YNgxxxzT0EEuv/zy0AD6oYceMt3d3eaRRx5x9rUjceZlxNkPmKcImAEguRaK/TPZ/Ch/YQAIIIB22KpVq8xb3vIWc/fdd1c8yUcffdSbJn7cccfV8yK01oJQNCo+/EB5Rh4EywCAdmLdau264nKiQAXTcbwofgCt1jGee/IvZuWhB2od3mm24NgnP/nJ0ADarrOuM3i2OpJ8zbCk+cC6pZnA9DxvgIPq2AAAB7ButXZxCaCph4JKYpmc8QNotUY9teMR0/val2od3nk9PT1eAbKbb755n1O1+0lfeOGFab88Lhkxxri4p/EcRbwAAECE6s4a2jXTSssBGIypHdeqRkzhjoHzzz9/vwD6rLPO8tZX1yOTK2j+x0j69N8ZsrcAgASywVI3f1gExKlPx3KA2vH/vEZ+WWjWNjrs+OOPN2vXrl08wTe/+c3m5JNPbuSENW8iZEEBAIgf+ohuI2uIOItl8skLoDWneE49QBXppdhM8xVXXLH4U3btcyaTcfV0AQAAmtH2rVVjTCNr2OigykTE5wGoUJ/CbYuIYWknnHCCueeee7y9oV/3utc1esWYwg0AAOoxQ0CLMnGaVUiGvgbZ/CjV3OsQDKBnjTGdzp9xivX29ppTTjmlmeyz2hRuClkBABBLM/zZEBGNZArremujFUDHdwq3ULlBTu14VOOwsbRs2TKzfDl13wAAQLJl86MUf1pCNj/aq3ToRpMiJFOQCMu0X8Tck88k40rGg9abUSw3SQcAAGoZIqbeuitWy/Ky+VHa0tK0YoRYznAJBtAqN8i5XayBbiOtGwjrnwEAAKKlNe220aBHKwPNbIalqcQIC8X+2AfQKqZ3MoW7jbRutATQAADEk1bQozU9OU5U+nVNBD30B92lEUDPxuXilAsG0KxLSD6tInG0LQAAYmih2E/Q4664BT1koN2lcY1iW6AwGECr3SAzucKp9gOPlj3sNdYsT8+bLwAA8aVRy4RtdZYWq6BHcTCGNdBL07hGiQigyRImm+YbEW0LAID40gh8CKCXphH0NNunYzDGTRrbfcU/gC5NDmpmCVnn0nqa01fYQxIAgPjSKDRL0LM0jaCn2XiBwRjHKFYpj+Ue0KZCEbEJpfNgakXrqV3j0uQgATQAAPGlEfRo1W2JhWx+VCsobDboYTDGPVpJttgu8SwPoLUCHRb3t55Wlp89oAEAiDeVpVjZ/Cj9w3Bx28Iqqt9vBIMx1an8P1so9sd2iScBdHqwQToAAGiEVkeXzGE4jcTIfAT79qr0C7P5UZaLhtOIEbRmPUeiPIDWmovekckVCKJbRK5th9LhKSAGAECMSfXkeYVXQNATTuPaNN2nWyj2a8UaxBnhNNpSrBNs5QG0ZrAzoHjspNN8AyKABgAg/jTezwmgK5CiT2sUDh1V8KuxvI+2VIGspdeY4h7r+GCfAFoqcTezQXoz+pSOmwZ5xddIAA0AQPxpZA67FYtluUyrzxxVn06jb7hWsdq0y7TaUmwrcJsKGWij+II6M7kCQXTEMrlCr2LxhFkqcAMAkAhaA+LMUNyf1jWJcwBtSNZVpJJki3MBMeNYAG2UM6VJNaT4umI9ugQAABZpvacTQAdIRl5j+vZsBAXEfAzGOEAKq2kk2WJdQMyEBNBjCufhW0MWOjpyLTVusj7NtgQAACIihcQ01q52ZvOjBD57aSVGIhtAkUJiGkXp1lCNex9abSn28cF+AbSsgx7ROR3PcCZXYI1Ck+QaFhVPYb40OUgADQBAcmhloTVn0zlDss/rlM4n6j4dbUmRDCRoJdmSF0CL4bafyV4dysdPimHljeM1g3cAABA9rf6ZzUKzzE+vb2Wnb0cd9GgFUWSh99BqS9MRLgVQUzGALk0OjivPT1+byRW4UTZIrt1axVOYJ4AGACBZpPCPxjRuayjNFbmz+dE+xb5d5AMnC8X+YaVp3NZwmityy2BUt9LhExEfhGWgjQNTHK7N5AqseamTXLNrlU+jKEsBAABAsmh1gFM7Q1GCPa3X3sqkiFZb6kxroiebH+1RjBNmZeAk9kIDaMlCb1F+gVsJomsn12qr8mlMlyYHWV8CAEACSQd4VumV2em3aexjjMsAgoaiFJBrhaJiFnpd2orTKQ/EmCStP6+WgTbyQrWm6vgIomvgSPBs2CIAAIDE01xmtylNgU82PzqsON22pUvyJDDXzARvTdl66DHFtpSY7LNZKoCWabgDiqNDPhtEU1gsRCZXKDoSPK8vTQ7GemN0AABQnRSU0qyVszUNQbQEz1pVt62BFmafPQvFfu1k3ZhMa040aUuaW9sm6v/rUhloIwGRCy96XSZXmMrkCqktIFHOXgt7TYwxGxw4nZHS5CCDHAAApIN2giXRQbQDwfO2FlTeDqP5d7RT48eTnIl2oC1tkb2/E2PJANrsCaLtf6D1DrxoO+1gigrdi5W2pxSnYgTZ4Jmp2wAApIRsRaP93r81aWui7TpVBwKe2Xb+baW6+8Z2Ha8CG0RvT9qAjLSlKeW2ZLetSlzcVlMAbfYE0cOOBNEdUqHbBtKp28fNvmbJOl+rWFAiiOAZAIAUkgyldsFZuyZ6LAnbEslU4nHlgMfOKuhr9dTtcgvFfrsccaSdx6zADsgkYosraUvaiTavLSkev2VqDqDN3iD6VAfWRBtpENszucJ4GgJpCZztTXW7I1lnazPBMwAA6SXZJe3Ax+6PPCN7JceS7M077kAfLy8ZYZVjO1C8eF3cp3TLrIz7ZLsuLTZW7JWZKolTVwBt9m5v1etAA/etCQTSiRvlsK8pEDhrLv4Psv8p3sV2VQAAYKHYP+BAEG1n5d0p2ejY1MuxmcJsfnTckZmF6zUrJUvW24UYo1umdMcqG22DfpmyvcmB0+lVHIhpuboDaLO3sFivAzfLIBtc3pnJFWYyucJQnIuNSXEw+xrsqM2dDgXORm5qvbIuHgAAwJUg2kg2+kGbhXM5+LFBvqx1vs+Rfp5q8OxzKIg2ko2eiUlbGnNklqpNsq1OcvBsLW/0F/0trjK5wphsyu3Celwj0xXsyMumTK4wLec27vr2SplcoUduGAMOTdEut5msMwAAqMQG0dn8qFFew+vbJOujbVA/5MpUUlmbmnfkGhkJePIu7dFrg2iZQl104Dp1SFvKZ/Oj9nyGHWpLvdKW1jpwOiYwbTvxW9o2HED7bCZSsr0uNPJy3TIlxgaos7K2ZFwCatXGL9esN/DQXKewFLvXY549ngF1drlK0v8KE6XJwdQViASSQoJo29fa6shLsn3Tddn86LT0VcfaXSBLspcDDiZJZqVgmHP9O/kb2bY048iU5I7AoMw2246U2lKXFObKOxY7TEtbSuSa53JNB9Bm32y0Hb0acmzKsa/Tv4maPQHsvFSnG5ePc7K+O3JS5MzePP0sc49DGftq7I11iP2dAQBArWw2U9ZijjnUye+WoN5WWp6QcxtvVfAomWaXZxZOaFTbrtdCsX9I2pJLs13XymOrBNPjLW5LfsKtz9G2NCKzGJxuS1GKJID2+QXGJGAcdjyr2iGB/mKwL5kdP7A2fmAd+J0ZeQR1ycPnB8omRoFyOXsNikzXBgAAjbDBhASRww5NMfUt9v9kyvmE9Pmm/L5erZk0yQj6jx55uJhICtoo20bFgt0uTa7zmIPX1g+mbVsIJuf8mGGq1sAy0JZ6Ah9dbkvOTf9vl0gDaJ8E0l1SFTsfgxtJUEfgfON03lGYlelNwzKrAAAAoCESOPRJBs3lxMqa8j6fBNZGpqaW94lWOlyvppoJ5W2qGuYXF8vmRwekr+pigmq/5JxZui11OZ5wDLNN2lIqpmyXa0kA7ZNKzWOSkR5wcI009piWjDNTtQEAQKQWiv3jgeJZ+ZjNzotjoFwuMZlCWR4wJktGNzhwSvVIQluyyTbbllK9G09D21jVy2akS5ODNoB+ua3kLBcfuuZlzcLq0uRgD8EzAABoFZtBtOtZZVqqS9ugJtm89Lu7kjTNVtpSXuKKbQ6cUhp4bWmh2G/bUuq3sm1pBrqcVL62N88h2bYpLwvi47hOOK68yoEEzAAAoN1kyqetrjwkfUJmJ0ZvXtYLJ7qwk7SlPge3c0qSeZkyX0xTkbCltDWADpItkWxW2sha6T7j/nZOcTQvxQzGJHCm8QMAAFVlgXRe+oQkVJqTymDHLhGwfV0pwsWgTDQW6yIROO9PLYAO8tdKmz3BdE+gVHvainhFZTqw33Xqp1kAAAA3SSCdl0DaLz6bhLWi7TQtQXOqZxcGBmX8ARnX9kqOgwlpS8QPVTgRQAdJZnpKRj38PZT9BwF1ZYsBswTNjBQBAIDYkCyXDQCHpeDYgATUBECVzUryqZjWSshhpC15mfhA8TqWjIab9f/v0ZZq41wAXU62xBr3vxzIUPt77aVtlHI2sFfhuFwfAACARJBtlvKSmSaY3ssPmofjuBWVBrlO3pLRbH60LzDLNe1tyU++0ZYakCmVSrE76XISVAc3sF+ZgGz1rGzAvrgZO8EyAADxJIWOtiuc/MRCsb83Cc1G1rj2BWYmpiGjOCFB8ziBTnRkYCZNS0bnA7NVx5KSac7mRzUC2YlEBNBhMrnCykBA3SM/5r+JaG5cPi8ZZCMf5/wgWQJlpk8AAJAgBNDRCwRB/szEuGcV/f7huATMJE7aRP5/+u0oCYMzwYA5sYMvBNCKAoF2ULNvNn5g7JuT9d0AACBlsvnRSn2NdphLS+YycI39QKjL4aV+wZmG3tI81p+6Q2Y79AQeLrelaWlLU2lrSzLw0W5zBNAAAABILAmGugKzEv3PTQun7/oBsgnU8hlP04BGEsmsh/IZrivl0aoAe1qScnOBBN0UbUkPATQAAABSLxAcNYQp1/A1mxmlLTnMGPP/AetmT+muostkAAAAAElFTkSuQmCC;imageBackground=none;imageBorder=none;fontSize=20;" vertex="1" parent="1">
          <mxGeometry x="412" y="45" width="208.36" height="38" as="geometry" />
        </mxCell>
        <mxCell id="71EcnhhfjaReExA0ttNN-15" value="LLM" style="shape=folder;fontStyle=1;tabWidth=110;tabHeight=30;tabPosition=left;html=1;boundedLbl=1;labelInHeader=1;container=1;collapsible=0;whiteSpace=wrap;fontSize=20;" vertex="1" parent="1">
          <mxGeometry x="109" y="149" width="961" height="401" as="geometry" />
        </mxCell>
        <mxCell id="71EcnhhfjaReExA0ttNN-16" value="" style="html=1;strokeColor=none;resizeWidth=1;resizeHeight=1;fillColor=none;part=1;connectable=0;allowArrows=0;deletable=0;whiteSpace=wrap;fontSize=20;" vertex="1" parent="71EcnhhfjaReExA0ttNN-15">
          <mxGeometry width="961.0000000000002" height="135.90147629381207" relative="1" as="geometry">
            <mxPoint y="30" as="offset" />
          </mxGeometry>
        </mxCell>
        <mxCell id="71EcnhhfjaReExA0ttNN-17" value="LLMResource" style="swimlane;fontStyle=1;align=center;verticalAlign=top;childLayout=stackLayout;horizontal=1;startSize=36;horizontalStack=0;resizeParent=1;resizeParentMax=0;resizeLast=0;collapsible=1;marginBottom=0;whiteSpace=wrap;html=1;fontSize=20;" vertex="1" parent="71EcnhhfjaReExA0ttNN-15">
          <mxGeometry x="6" y="95.11455250871309" width="280" height="140.00019267442624" as="geometry" />
        </mxCell>
        <mxCell id="71EcnhhfjaReExA0ttNN-18" value="" style="line;strokeWidth=1;fillColor=none;align=left;verticalAlign=middle;spacingTop=-1;spacingLeft=3;spacingRight=3;rotatable=0;labelPosition=right;points=[];portConstraint=eastwest;strokeColor=inherit;fontSize=20;" vertex="1" parent="71EcnhhfjaReExA0ttNN-17">
          <mxGeometry y="36" width="280" height="5.010192674426251" as="geometry" />
        </mxCell>
        <mxCell id="71EcnhhfjaReExA0ttNN-19" value="+ exchangeMessage&lt;br&gt;(question:String): CompletableFuture" style="text;strokeColor=none;fillColor=none;align=left;verticalAlign=top;spacingLeft=4;spacingRight=4;overflow=hidden;rotatable=0;points=[[0,0.5],[1,0.5]];portConstraint=eastwest;whiteSpace=wrap;html=1;fontSize=20;" vertex="1" parent="71EcnhhfjaReExA0ttNN-17">
          <mxGeometry y="41.01019267442625" width="280" height="98.99" as="geometry" />
        </mxCell>
        <mxCell id="71EcnhhfjaReExA0ttNN-28" value="ChatClientEndpoint" style="swimlane;fontStyle=1;align=center;verticalAlign=top;childLayout=stackLayout;horizontal=1;startSize=40;horizontalStack=0;resizeParent=1;resizeParentMax=0;resizeLast=0;collapsible=1;marginBottom=0;whiteSpace=wrap;html=1;fontSize=20;" vertex="1" parent="71EcnhhfjaReExA0ttNN-15">
          <mxGeometry x="336" y="40.62" width="354" height="340.00442274391185" as="geometry" />
        </mxCell>
        <mxCell id="71EcnhhfjaReExA0ttNN-29" value="+ userSession: Session&lt;div style=&quot;font-size: 20px;&quot;&gt;+ messageHandler: MessageHandler&lt;/div&gt;" style="text;strokeColor=none;fillColor=none;align=left;verticalAlign=top;spacingLeft=4;spacingRight=4;overflow=hidden;rotatable=0;points=[[0,0.5],[1,0.5]];portConstraint=eastwest;whiteSpace=wrap;html=1;fontSize=20;" vertex="1" parent="71EcnhhfjaReExA0ttNN-28">
          <mxGeometry y="40" width="354" height="82.62423006948556" as="geometry" />
        </mxCell>
        <mxCell id="71EcnhhfjaReExA0ttNN-30" value="" style="line;strokeWidth=1;fillColor=none;align=left;verticalAlign=middle;spacingTop=-1;spacingLeft=3;spacingRight=3;rotatable=0;labelPosition=right;points=[];portConstraint=eastwest;strokeColor=inherit;fontSize=20;" vertex="1" parent="71EcnhhfjaReExA0ttNN-28">
          <mxGeometry y="122.62423006948556" width="354" height="5.01019267442625" as="geometry" />
        </mxCell>
        <mxCell id="71EcnhhfjaReExA0ttNN-31" value="+ onOpen(userSession: Session): void&lt;div style=&quot;font-size: 20px;&quot;&gt;+ onClose(userSession: Session, reason: CloseReason): void;&lt;/div&gt;&lt;div style=&quot;font-size: 20px;&quot;&gt;+ onMessage(message: String): void&lt;/div&gt;&lt;div style=&quot;font-size: 20px;&quot;&gt;+ addMessageHandler(msgHandler: MessageHandler);&lt;/div&gt;&lt;div style=&quot;font-size: 20px;&quot;&gt;+ sendMessage(message: Object): void&lt;/div&gt;" style="text;strokeColor=none;fillColor=none;align=left;verticalAlign=top;spacingLeft=4;spacingRight=4;overflow=hidden;rotatable=0;points=[[0,0.5],[1,0.5]];portConstraint=eastwest;whiteSpace=wrap;html=1;fontSize=20;" vertex="1" parent="71EcnhhfjaReExA0ttNN-28">
          <mxGeometry y="127.63442274391181" width="354" height="212.37" as="geometry" />
        </mxCell>
        <mxCell id="71EcnhhfjaReExA0ttNN-37" value="&amp;lt;&amp;lt;interface&amp;gt;&lt;br style=&quot;font-size: 20px;&quot;&gt;MessageHandler" style="swimlane;fontStyle=0;childLayout=stackLayout;horizontal=1;startSize=61;fillColor=none;horizontalStack=0;resizeParent=1;resizeParentMax=0;resizeLast=0;collapsible=1;marginBottom=0;whiteSpace=wrap;html=1;fontSize=20;" vertex="1" parent="71EcnhhfjaReExA0ttNN-15">
          <mxGeometry x="731.14" y="100.20385348852503" width="216.41" height="121.6497007956862" as="geometry" />
        </mxCell>
        <mxCell id="71EcnhhfjaReExA0ttNN-38" value="+handleMessage(msg: String): void" style="text;strokeColor=none;fillColor=none;align=left;verticalAlign=top;spacingLeft=4;spacingRight=4;overflow=hidden;rotatable=0;points=[[0,0.5],[1,0.5]];portConstraint=eastwest;whiteSpace=wrap;html=1;fontSize=20;" vertex="1" parent="71EcnhhfjaReExA0ttNN-37">
          <mxGeometry y="61" width="216.41" height="60.6497007956862" as="geometry" />
        </mxCell>
        <mxCell id="71EcnhhfjaReExA0ttNN-45" style="edgeStyle=orthogonalEdgeStyle;rounded=0;orthogonalLoop=1;jettySize=auto;html=1;entryX=0;entryY=0.136;entryDx=0;entryDy=0;entryPerimeter=0;fontSize=20;" edge="1" parent="71EcnhhfjaReExA0ttNN-15" source="71EcnhhfjaReExA0ttNN-17" target="71EcnhhfjaReExA0ttNN-31">
          <mxGeometry relative="1" as="geometry" />
        </mxCell>
        <mxCell id="71EcnhhfjaReExA0ttNN-47" style="edgeStyle=orthogonalEdgeStyle;rounded=0;orthogonalLoop=1;jettySize=auto;html=1;entryX=-0.005;entryY=0.424;entryDx=0;entryDy=0;entryPerimeter=0;fontSize=20;" edge="1" parent="71EcnhhfjaReExA0ttNN-15" source="71EcnhhfjaReExA0ttNN-31" target="71EcnhhfjaReExA0ttNN-37">
          <mxGeometry relative="1" as="geometry" />
        </mxCell>
        <mxCell id="71EcnhhfjaReExA0ttNN-50" value="" style="shape=image;html=1;verticalAlign=top;verticalLabelPosition=bottom;labelBackgroundColor=#ffffff;imageAspect=0;aspect=fixed;image=https://cdn1.iconfinder.com/data/icons/material-core/18/search-128.png;fontSize=20;" vertex="1" parent="71EcnhhfjaReExA0ttNN-15">
          <mxGeometry x="4" y="4.39490585475987" width="16.700642248087505" height="16.700642248087505" as="geometry" />
        </mxCell>
        <mxCell id="71EcnhhfjaReExA0ttNN-53" style="edgeStyle=orthogonalEdgeStyle;rounded=0;orthogonalLoop=1;jettySize=auto;html=1;" edge="1" parent="1" source="71EcnhhfjaReExA0ttNN-51" target="71EcnhhfjaReExA0ttNN-2">
          <mxGeometry relative="1" as="geometry" />
        </mxCell>
        <mxCell id="71EcnhhfjaReExA0ttNN-51" value="&lt;div style=&quot;font-size: 20px;&quot;&gt;&lt;br style=&quot;font-size: 20px;&quot;&gt;&lt;/div&gt;&lt;div style=&quot;font-size: 20px;&quot;&gt;&lt;br style=&quot;font-size: 20px;&quot;&gt;&lt;/div&gt;&lt;div style=&quot;font-size: 20px;&quot;&gt;&lt;br style=&quot;font-size: 20px;&quot;&gt;&lt;/div&gt;&lt;div style=&quot;font-size: 20px;&quot;&gt;&lt;br&gt;&lt;/div&gt;&lt;div style=&quot;font-size: 20px;&quot;&gt;DM&lt;/div&gt;" style="aspect=fixed;sketch=0;html=1;dashed=0;whitespace=wrap;fillColor=#2875E2;strokeColor=#ffffff;points=[[0.005,0.63,0],[0.1,0.2,0],[0.9,0.2,0],[0.5,0,0],[0.995,0.63,0],[0.72,0.99,0],[0.5,1,0],[0.28,0.99,0]];shape=mxgraph.kubernetes.icon2;prIcon=user;fontSize=20;" vertex="1" parent="1">
          <mxGeometry x="149" y="40" width="50" height="48" as="geometry" />
        </mxCell>
      </root>
    </mxGraphModel>
  </diagram>
</mxfile>
